<svg width="94" height="94" viewBox="0 0 94 94" fill="none" xmlns="http://www.w3.org/2000/svg">
<rect width="93.1765" height="93.1765" rx="12.4235" fill="black"/>
<g clip-path="url(#clip0_26_606)">
<path d="M46.2432 46.5885C46.2432 44.0258 47.2612 41.568 49.0733 39.7559C50.8854 37.9438 53.3432 36.9258 55.9059 36.9258C58.4686 36.9258 60.9264 37.9438 62.7385 39.7559C64.5506 41.568 65.5687 44.0258 65.5687 46.5885C65.5687 49.1512 64.5506 51.609 62.7385 53.4211C60.9264 55.2332 58.4686 56.2513 55.9059 56.2513C53.3432 56.2513 50.8854 55.2332 49.0733 53.4211C47.2612 51.609 46.2432 49.1512 46.2432 46.5885Z" fill="#1ABCFE"/>
<path d="M26.9175 65.9134C26.9175 63.3506 27.9355 60.8929 29.7476 59.0808C31.5597 57.2686 34.0175 56.2506 36.5802 56.2506H46.243V65.9134C46.243 68.4761 45.2249 70.9338 43.4128 72.7459C41.6007 74.5581 39.1429 75.5761 36.5802 75.5761C34.0175 75.5761 31.5597 74.5581 29.7476 72.7459C27.9355 70.9338 26.9175 68.4761 26.9175 65.9134V65.9134Z" fill="#0ACF83"/>
<path d="M46.2432 17.6V36.9255H55.9059C58.4686 36.9255 60.9264 35.9074 62.7385 34.0953C64.5506 32.2832 65.5687 29.8254 65.5687 27.2627C65.5687 24.7 64.5506 22.2422 62.7385 20.4301C60.9264 18.618 58.4686 17.6 55.9059 17.6H46.2432Z" fill="#FF7262"/>
<path d="M26.9175 27.2627C26.9175 29.8254 27.9355 32.2832 29.7476 34.0953C31.5597 35.9074 34.0175 36.9255 36.5802 36.9255H46.243V17.6H36.5802C34.0175 17.6 31.5597 18.618 29.7476 20.4301C27.9355 22.2422 26.9175 24.7 26.9175 27.2627V27.2627Z" fill="#F24E1E"/>
<path d="M26.9175 46.5885C26.9175 49.1512 27.9355 51.609 29.7476 53.4211C31.5597 55.2332 34.0175 56.2513 36.5802 56.2513H46.243V36.9258H36.5802C34.0175 36.9258 31.5597 37.9438 29.7476 39.7559C27.9355 41.568 26.9175 44.0258 26.9175 46.5885V46.5885Z" fill="#A259FF"/>
</g>
<defs>
<clipPath id="clip0_26_606">
<rect width="38.651" height="57.9765" fill="white" transform="translate(26.9175 17.6)"/>
</clipPath>
</defs>
</svg>
