<svg width="81" height="80" viewBox="0 0 81 80" fill="none" xmlns="http://www.w3.org/2000/svg">
<g clip-path="url(#clip0_535_1905)">
<path d="M78.4125 51.4155L66.1327 47.2421C66.0166 47.2015 65.8945 47.1805 65.7716 47.1801C65.5353 47.1803 65.305 47.2547 65.1128 47.3927C64.9207 47.5307 64.7764 47.7256 64.7001 47.9499L64.3533 48.9796L64.1039 48.8747C63.3912 48.5768 62.5074 47.7045 62.1154 46.1457C61.7644 44.654 61.5081 43.1414 61.3481 41.6172C61.2055 40.4946 61.0606 39.3338 60.8183 38.0277L60.7993 37.9181C60.3693 35.1557 58.704 25.8412 55.3353 21.9276C53.993 20.3712 53.2613 18.5908 52.6151 17.0273C51.9024 15.2659 51.2634 13.7477 49.9496 13.0136C49.4414 12.7196 48.8694 12.5545 48.2832 12.5324C47.697 12.5104 47.1143 12.6322 46.5857 12.8872C44.6851 13.7953 43.4712 16.1978 43.1196 18.1737C42.4995 21.6464 43.2478 24.6924 45.4738 27.7599L45.5237 27.829V27.9124C45.5095 28.8253 45.557 31.1348 46.3267 32.8413C46.4531 33.1113 46.6803 33.3204 46.9593 33.4236C47.2382 33.5267 47.5464 33.5155 47.8171 33.3923C48.0879 33.2692 48.2994 33.0441 48.4059 32.7657C48.5125 32.4872 48.5055 32.1779 48.3864 31.9047C47.7735 30.5485 47.7545 28.2938 47.7996 27.5406C47.8148 27.2659 47.7304 26.995 47.5621 26.7779C45.4667 24.0465 44.8039 21.5915 45.3408 18.5717C45.633 16.9367 46.5619 15.4089 47.5549 14.9346C47.7572 14.8301 47.9833 14.7808 48.2106 14.7917C48.4378 14.8026 48.6582 14.8732 48.8497 14.9966C49.4745 15.3446 49.9591 16.5243 50.5245 17.8924C51.1992 19.5322 52.0402 21.5749 53.6129 23.4101C55.4825 25.5814 57.1123 30.3983 58.4569 37.725C58.723 39.1217 58.9011 40.4707 59.0722 41.7769C59.2575 43.4355 59.5383 45.0821 59.9132 46.7082C60.4334 48.7818 61.7353 50.4001 63.3935 51.0389L63.6168 51.1271L57.4163 69.5057L53.2589 68.0924C52.6978 67.8875 52.1051 67.7834 51.5081 67.7849C50.9052 67.7846 50.3072 67.8936 49.7429 68.1067C49.4311 68.2271 49.1265 68.3656 48.8307 68.5214C47.9517 68.9623 46.8565 69.5105 45.0605 69.5105C43.6707 69.5105 42.0576 69.1911 40.1262 68.5333C40.0097 68.4946 39.8878 68.4745 39.7651 68.4737C39.498 68.4749 39.24 68.5709 39.0367 68.7447C38.8335 68.9185 38.6981 69.1589 38.6545 69.4233C38.611 69.6876 38.6621 69.9589 38.7989 70.1891C38.9356 70.4193 39.1491 70.5934 39.4016 70.6808C41.5635 71.4173 43.3999 71.7748 45.0153 71.7748C47.0774 71.7748 48.3579 71.1908 49.4887 70.676C49.8475 70.5115 50.1872 70.3566 50.5269 70.2327C50.8447 70.1143 51.181 70.0538 51.5199 70.0539C51.8271 70.0501 52.1326 70.1001 52.4227 70.2017L52.4773 70.2208H52.5011L56.6894 71.6508L55.9078 73.9651C55.8144 74.2496 55.8369 74.5596 55.9704 74.8275C56.1039 75.0954 56.3376 75.2995 56.6205 75.3952L68.9003 79.5734C69.0177 79.6121 69.1403 79.6322 69.2638 79.633C69.4999 79.6329 69.73 79.5587 69.9218 79.4206C70.1135 79.2824 70.2573 79.0875 70.3329 78.8631L79.1228 52.8431C79.2156 52.5593 79.1931 52.2501 79.0601 51.9828C78.9271 51.7156 78.6944 51.5117 78.4125 51.4155ZM68.5582 77.0708L58.4189 73.6219L66.4843 49.7494L76.6165 53.2007L68.5582 77.0708Z" fill="#0033A0"/>
<path d="M64.2107 73.1834C64.3723 73.2381 64.5415 73.2663 64.712 73.2668C65.0811 73.2666 65.4382 73.1349 65.7196 72.8953C66.001 72.6556 66.1885 72.3236 66.2486 71.9582C66.3088 71.5928 66.2378 71.2179 66.0482 70.9002C65.8586 70.5824 65.5627 70.3425 65.2133 70.2232C65.0518 70.1685 64.8825 70.1403 64.712 70.1398C64.3429 70.14 63.9858 70.2717 63.7044 70.5113C63.423 70.751 63.2356 71.0831 63.1754 71.4484C63.1152 71.8138 63.1863 72.1887 63.3759 72.5065C63.5655 72.8242 63.8613 73.0641 64.2107 73.1834Z" fill="#0033A0"/>
<path d="M9.92667 21.439C10.0756 21.4403 10.2233 21.412 10.3612 21.3559C10.4992 21.2997 10.6248 21.2168 10.7307 21.1118C10.8367 21.0068 10.9209 20.8819 10.9786 20.7442C11.0363 20.6065 11.0664 20.4587 11.067 20.3093V5.72981C11.067 4.90804 11.3924 4.11994 11.9716 3.53886C12.5507 2.95779 13.3363 2.63134 14.1554 2.63134H40.8935C41.7126 2.63134 42.4982 2.95779 43.0773 3.53886C43.6565 4.11994 43.9819 4.90804 43.9819 5.72981V9.50279C43.9749 9.65599 43.9989 9.80903 44.0525 9.95265C44.1061 10.0963 44.1882 10.2275 44.2938 10.3384C44.3994 10.4493 44.5263 10.5376 44.6668 10.5979C44.8074 10.6582 44.9587 10.6893 45.1115 10.6893C45.2644 10.6893 45.4157 10.6582 45.5562 10.5979C45.6968 10.5376 45.8237 10.4493 45.9292 10.3384C46.0348 10.2275 46.1169 10.0963 46.1705 9.95265C46.2241 9.80903 46.2482 9.65599 46.2412 9.50279V5.72981C46.2399 4.30579 45.6757 2.94043 44.6722 1.93328C43.6688 0.926125 42.3081 0.359437 40.8888 0.357544H14.1554C12.736 0.359437 11.3753 0.926125 10.3719 1.93328C9.36847 2.94043 8.80424 4.30579 8.80298 5.72981V20.3093C8.80422 20.6081 8.92293 20.8944 9.13333 21.1059C9.34373 21.3174 9.62882 21.4371 9.92667 21.439Z" fill="#FF6A13"/>
<path d="M46.246 61.6976V36.0947C46.253 35.9415 46.229 35.7885 46.1754 35.6448C46.1218 35.5012 46.0397 35.37 45.9341 35.2591C45.8285 35.1482 45.7016 35.0599 45.5611 34.9996C45.4205 34.9393 45.2692 34.9082 45.1164 34.9082C44.9635 34.9082 44.8122 34.9393 44.6717 34.9996C44.5311 35.0599 44.4042 35.1482 44.2987 35.2591C44.1931 35.37 44.111 35.5012 44.0574 35.6448C44.0038 35.7885 43.9797 35.9415 43.9867 36.0947V61.6976C43.9867 62.5193 43.6614 63.3074 43.0822 63.8885C42.503 64.4696 41.7175 64.796 40.8984 64.796H14.1555C13.3364 64.796 12.5508 64.4696 11.9717 63.8885C11.3925 63.3074 11.0671 62.5193 11.0671 61.6976C11.0741 61.5444 11.0501 61.3913 10.9965 61.2477C10.9428 61.1041 10.8608 60.9728 10.7552 60.8619C10.6496 60.751 10.5227 60.6628 10.3822 60.6025C10.2416 60.5422 10.0903 60.5111 9.93746 60.5111C9.7846 60.5111 9.63332 60.5422 9.49277 60.6025C9.35222 60.6628 9.22532 60.751 9.11974 60.8619C9.01415 60.9728 8.93207 61.1041 8.87846 61.2477C8.82486 61.3913 8.80082 61.5444 8.80783 61.6976C8.80971 63.1203 9.37358 64.4844 10.3759 65.4909C11.3782 66.4974 12.7373 67.0643 14.1555 67.0674H40.8936C42.3126 67.0655 43.6729 66.4992 44.6762 65.4925C45.6796 64.4859 46.2441 63.1212 46.246 61.6976Z" fill="#FF6A13"/>
<path d="M11.1905 54.5807V54.5521C11.1691 54.5921 11.1554 54.6358 11.1501 54.6808L11.1715 54.6236L11.1905 54.5807Z" fill="#0033A0"/>
<path d="M9.08564 58.9209H9.16641C10.0372 58.9061 10.8894 58.6654 11.64 58.2223C12.3907 57.7792 13.0142 57.1487 13.45 56.3921C13.8857 55.6355 14.1189 54.7787 14.1268 53.9049C14.1346 53.0312 13.9169 52.1703 13.4949 51.4059L13.3642 51.1676L13.6018 51.0556C14.1009 50.8289 14.5598 50.5222 14.9607 50.1475L15.0699 50.0474H15.0842C15.6068 49.5339 16.0116 48.9122 16.2703 48.2257C16.5289 47.5392 16.6353 46.8043 16.5819 46.0724C16.5285 45.3404 16.3167 44.6289 15.9612 43.9875C15.6057 43.3461 15.1151 42.7901 14.5235 42.3584L14.2622 42.1677L14.5117 41.9628C15.1347 41.4423 15.623 40.7785 15.935 40.0277C16.247 39.277 16.3733 38.4617 16.3033 37.6514C16.2333 36.8411 15.969 36.0598 15.5329 35.3741C15.0968 34.6885 14.502 34.1188 13.799 33.7137L13.4973 33.5373L13.7586 33.299C14.4202 32.7139 14.9167 31.9644 15.1982 31.1259C15.4798 30.2874 15.5366 29.3893 15.3628 28.5219C15.189 27.6544 14.7908 26.8481 14.2081 26.1838C13.6255 25.5196 12.8789 25.0209 12.0433 24.7377L10.0288 24.1013L9.97651 24.0822L9.69618 23.994C9.49576 23.9439 9.29272 23.9049 9.08801 23.8772L8.97398 23.8629H8.89558C8.73641 23.8486 8.57249 23.8391 8.42044 23.8391C7.36807 23.8388 6.34203 24.1692 5.48643 24.7839C4.63082 25.3986 3.98865 26.2668 3.6501 27.2665C3.62927 27.331 3.61416 27.3972 3.60496 27.4643V27.4977C3.4195 28.1324 3.36055 28.7976 3.43148 29.4552C3.50241 30.1129 3.70183 30.75 4.01833 31.3302L4.14899 31.5686L3.89955 31.6782C3.3752 31.9066 2.89324 32.2225 2.47415 32.6125L2.36724 32.715H2.35061C1.82847 33.2289 1.42422 33.8508 1.16598 34.5373C0.907751 35.2239 0.801738 35.9586 0.855327 36.6905C0.908917 37.4223 1.12082 38.1336 1.47629 38.775C1.83176 39.4163 2.32226 39.9722 2.91364 40.404L3.17259 40.5923L2.93503 40.7996C2.22036 41.3931 1.68478 42.1747 1.38846 43.0568C1.01666 44.1623 1.0373 45.3628 1.44689 46.4549C1.85648 47.5469 2.62982 48.4633 3.63585 49.0487L3.93993 49.2251L3.67861 49.4634C3.01703 50.0485 2.52052 50.798 2.23895 51.6365C1.95737 52.475 1.90063 53.373 2.07443 54.2405C2.24822 55.108 2.64643 55.9143 3.22908 56.5785C3.81173 57.2428 4.5583 57.7415 5.39384 58.0247L7.40604 58.6611C7.92317 58.838 8.46563 58.929 9.01199 58.9304L9.08564 58.9209ZM5.80008 28.0792C5.98718 27.4693 6.3768 26.9421 6.90411 26.5852C7.43142 26.2283 8.06464 26.0633 8.6984 26.1177H8.75779H8.81243H8.83381C9.00106 26.1409 9.16572 26.18 9.32558 26.2345L11.3378 26.8732C12.034 27.1093 12.6082 27.6132 12.9341 28.2741C13.26 28.935 13.3109 29.6986 13.0756 30.3971C12.8402 31.0956 12.338 31.6717 11.6793 31.9987C11.0206 32.3257 10.2594 32.3767 9.56315 32.1406L9.40635 32.0882L7.55096 31.5114L7.28963 31.4327L7.24924 31.4184C6.65251 31.1243 6.17926 30.6272 5.91385 30.0157C5.64845 29.4041 5.60813 28.7179 5.80008 28.0792ZM3.20585 35.6395L3.22723 35.5823C3.25839 35.5259 3.28462 35.4669 3.30563 35.4059C3.52948 34.7289 4.00861 34.1668 4.64045 33.8398C5.27229 33.5128 6.00661 33.447 6.68621 33.6565C6.80974 33.7018 10.5799 34.9531 12.5589 35.6109L12.5945 35.6276C13.2088 35.9542 13.6783 36.5007 13.9096 37.1585C14.1409 37.8163 14.1172 38.5374 13.8432 39.1785C13.5692 39.8196 13.0649 40.3338 12.4304 40.6191C11.7959 40.9044 11.0777 40.94 10.4184 40.7186L10.264 40.6662L5.03749 38.9382C4.94247 38.9048 4.85457 38.8786 4.76904 38.8571L4.72628 38.8428C4.14043 38.5704 3.66786 38.1012 3.39024 37.5163C3.11262 36.9314 3.0474 36.2675 3.20585 35.6395ZM3.53845 43.7789C3.77538 43.0814 4.27813 42.5064 4.93664 42.1799C5.59516 41.8533 6.35579 41.8018 7.05206 42.0366L7.20886 42.0915L12.4353 43.8195C12.5304 43.8528 12.6183 43.879 12.7038 43.9005L12.7465 43.9148C13.3321 44.1858 13.8049 44.6535 14.0834 45.2371C14.3618 45.8206 14.4285 46.4834 14.2717 47.111L14.2503 47.1706C14.2191 47.2269 14.1928 47.2859 14.1719 47.3469C13.9939 47.8931 13.6478 48.3685 13.1833 48.7048C12.7188 49.041 12.16 49.2207 11.5872 49.2179C11.3916 49.2175 11.1965 49.1967 11.0052 49.156H10.9648C10.8127 49.0988 6.54842 47.6949 4.91871 47.1586L4.8807 47.142C4.29137 46.8369 3.83132 46.3291 3.58481 45.7114C3.3383 45.0938 3.32184 44.4077 3.53845 43.7789ZM8.4941 56.6042L8.22327 56.5232L8.14724 56.5017L6.13505 55.8629C5.79032 55.746 5.47191 55.5622 5.19801 55.3218C4.92411 55.0814 4.70008 54.7893 4.53871 54.4621C4.37734 54.1349 4.28179 53.7789 4.25752 53.4147C4.23325 53.0504 4.28073 52.6849 4.39725 52.339C4.51378 51.9932 4.69706 51.6737 4.93664 51.3989C5.17621 51.1241 5.4674 50.8994 5.79356 50.7375C6.11971 50.5756 6.47446 50.4797 6.83755 50.4554C7.20063 50.431 7.56494 50.4787 7.90968 50.5956C8.62238 50.8339 9.81021 51.2057 9.90761 51.2296C11.5587 51.742 12.0457 53.3961 11.6775 54.7022C11.6732 54.7216 11.6677 54.7408 11.6609 54.7594C11.4873 55.2753 11.1664 55.7286 10.7381 56.063C10.3098 56.3973 9.793 56.598 9.25193 56.6399H9.2258H9.05237H9.03575C8.85617 56.6359 8.6773 56.616 8.50122 56.5804L8.4941 56.6042Z" fill="#0033A0"/>
<path d="M11.4043 54.7046V54.7318C11.4053 54.7228 11.4053 54.7136 11.4043 54.7046Z" fill="#0033A0"/>
<path d="M11.4043 54.7047C11.411 54.6976 11.4166 54.6895 11.4209 54.6808V54.6522C11.4119 54.6684 11.4062 54.6862 11.4043 54.7047Z" fill="#0033A0"/>
<path d="M11.4044 54.9573V54.7308C11.3772 54.8081 11.3454 54.8837 11.3093 54.9573H11.4044Z" fill="#0033A0"/>
<path d="M11.4138 54.7046H11.4305V54.6784L11.5825 54.5282L11.4305 54.6784V54.6545C11.4315 54.6632 11.4315 54.672 11.4305 54.6807C11.4261 54.6895 11.4205 54.6975 11.4138 54.7046Z" fill="#0033A0"/>
<path d="M22.7339 6.66171C22.7344 6.49803 22.6864 6.3379 22.5961 6.20158C22.5058 6.06525 22.3773 5.95888 22.2267 5.89591C22.0761 5.83295 21.9103 5.81624 21.7502 5.84788C21.5901 5.87952 21.443 5.9581 21.3275 6.07367C21.212 6.18924 21.1332 6.3366 21.1012 6.4971C21.0692 6.65759 21.0854 6.82401 21.1477 6.97528C21.2101 7.12654 21.3157 7.25585 21.4513 7.34683C21.5869 7.43781 21.7464 7.48638 21.9096 7.48638C22.1278 7.48638 22.3371 7.39957 22.4916 7.24498C22.6462 7.0904 22.7333 6.88064 22.7339 6.66171Z" fill="#FF6A13"/>
<path d="M33.8472 7.48641C33.9591 7.49244 34.0709 7.47555 34.176 7.43677C34.2811 7.39799 34.3773 7.33813 34.4585 7.26085C34.5398 7.18357 34.6046 7.09049 34.6488 6.98728C34.693 6.88407 34.7158 6.77289 34.7158 6.66055C34.7158 6.5482 34.693 6.43703 34.6488 6.33382C34.6046 6.23061 34.5398 6.13753 34.4585 6.06025C34.3773 5.98297 34.2811 5.92311 34.176 5.88433C34.0709 5.84555 33.9591 5.82866 33.8472 5.83469H25.8317C25.7199 5.82866 25.608 5.84555 25.5029 5.88433C25.3978 5.92311 25.3017 5.98297 25.2204 6.06025C25.1392 6.13753 25.0744 6.23061 25.0302 6.33382C24.986 6.43703 24.9631 6.5482 24.9631 6.66055C24.9631 6.77289 24.986 6.88407 25.0302 6.98728C25.0744 7.09049 25.1392 7.18357 25.2204 7.26085C25.3017 7.33813 25.3978 7.39799 25.5029 7.43677C25.608 7.47555 25.7199 7.49244 25.8317 7.48641H33.8472Z" fill="#FF6A13"/>
<path d="M25.4849 60.7156C25.4849 61.1196 25.6043 61.5145 25.828 61.8504C26.0517 62.1863 26.3697 62.4481 26.7417 62.6027C27.1137 62.7573 27.5231 62.7978 27.918 62.7189C28.3129 62.6401 28.6757 62.4456 28.9604 62.1599C29.2452 61.8743 29.4391 61.5103 29.5176 61.1141C29.5962 60.7179 29.5559 60.3071 29.4018 59.9339C29.2477 59.5607 28.9867 59.2417 28.6519 59.0172C28.3171 58.7928 27.9235 58.673 27.5208 58.673C26.981 58.6736 26.4635 58.889 26.0819 59.2719C25.7002 59.6549 25.4855 60.174 25.4849 60.7156Z" fill="#FF6A13"/>
<path d="M41.459 55.6246C41.4584 55.3239 41.3391 55.0357 41.1271 54.8231C40.9152 54.6105 40.6279 54.4907 40.3282 54.4901H16.8637C16.5638 54.4901 16.2762 54.6096 16.0641 54.8224C15.852 55.0352 15.7329 55.3237 15.7329 55.6246C15.7329 55.9255 15.852 56.2141 16.0641 56.4268C16.2762 56.6396 16.5638 56.7591 16.8637 56.7591H40.3282C40.6279 56.7585 40.9152 56.6388 41.1271 56.4262C41.3391 56.2135 41.4584 55.9253 41.459 55.6246Z" fill="#FF6A13"/>
<path d="M40.3281 10.5372H14.7136C14.5609 10.5302 14.4084 10.5543 14.2652 10.6081C14.1221 10.6619 13.9913 10.7442 13.8808 10.8501C13.7702 10.9561 13.6822 11.0834 13.6221 11.2244C13.562 11.3654 13.531 11.5172 13.531 11.6705C13.531 11.8239 13.562 11.9757 13.6221 12.1167C13.6822 12.2577 13.7702 12.385 13.8808 12.4909C13.9913 12.5969 14.1221 12.6792 14.2652 12.733C14.4084 12.7868 14.5609 12.8109 14.7136 12.8038H40.3281C40.4808 12.8109 40.6334 12.7868 40.7765 12.733C40.9197 12.6792 41.0505 12.5969 41.161 12.4909C41.2715 12.385 41.3595 12.2577 41.4196 12.1167C41.4798 11.9757 41.5107 11.8239 41.5107 11.6705C41.5107 11.5172 41.4798 11.3654 41.4196 11.2244C41.3595 11.0834 41.2715 10.9561 41.161 10.8501C41.0505 10.7442 40.9197 10.6619 40.7765 10.6081C40.6334 10.5543 40.4808 10.5302 40.3281 10.5372Z" fill="#FF6A13"/>
</g>
<defs>
<clipPath id="clip0_535_1905">
<rect width="80" height="80" fill="white" transform="translate(0.5)"/>
</clipPath>
</defs>
</svg>
