<svg width="81" height="80" viewBox="0 0 81 80" fill="none" xmlns="http://www.w3.org/2000/svg">
<g clip-path="url(#clip0_535_1851)">
<path fill-rule="evenodd" clip-rule="evenodd" d="M26.1066 49.4571C25.6725 49.4571 25.248 49.5855 24.887 49.826C24.526 50.0666 24.2446 50.4085 24.0785 50.8086C23.9123 51.2086 23.8689 51.6488 23.9536 52.0735C24.0383 52.4982 24.2473 52.8883 24.5544 53.1945C24.8614 53.5007 25.2525 53.7092 25.6784 53.7936C26.1042 53.8781 26.5456 53.8348 26.9467 53.6691C27.3478 53.5034 27.6907 53.2227 27.9319 52.8627C28.1731 52.5027 28.3019 52.0794 28.3019 51.6464C28.3019 51.0658 28.0706 50.5089 27.6589 50.0983C27.2472 49.6877 26.6888 49.4571 26.1066 49.4571ZM13.3355 49.4571C12.9014 49.4571 12.4769 49.5855 12.1159 49.826C11.7549 50.0666 11.4735 50.4085 11.3074 50.8086C11.1412 51.2086 11.0978 51.6488 11.1825 52.0735C11.2672 52.4982 11.4762 52.8883 11.7833 53.1945C12.0903 53.5007 12.4814 53.7092 12.9073 53.7936C13.3331 53.8781 13.7745 53.8348 14.1756 53.6691C14.5767 53.5034 14.9196 53.2227 15.1608 52.8627C15.402 52.5027 15.5308 52.0794 15.5308 51.6464C15.5308 51.3589 15.474 51.0742 15.3637 50.8086C15.2534 50.543 15.0917 50.3016 14.8878 50.0983C14.684 49.895 14.442 49.7337 14.1756 49.6237C13.9093 49.5137 13.6238 49.4571 13.3355 49.4571ZM38.8777 37.5237C38.4436 37.5237 38.0191 37.6521 37.6581 37.8926C37.2971 38.1332 37.0157 38.4751 36.8496 38.8752C36.6834 39.2752 36.64 39.7154 36.7247 40.1401C36.8094 40.5648 37.0184 40.9549 37.3255 41.2611C37.6325 41.5673 38.0236 41.7758 38.4495 41.8602C38.8753 41.9447 39.3167 41.9014 39.7178 41.7357C40.1189 41.57 40.4618 41.2893 40.703 40.9293C40.9442 40.5693 41.073 40.146 41.073 39.713C41.0742 39.4249 41.0184 39.1394 40.9088 38.8729C40.7991 38.6064 40.6378 38.364 40.4341 38.1598C40.2304 37.9555 39.9882 37.7934 39.7215 37.6827C39.4549 37.5719 39.1689 37.5148 38.88 37.5145L38.8777 37.5237ZM26.1043 37.5237C25.6702 37.5237 25.2457 37.6521 24.8847 37.8926C24.5237 38.1332 24.2423 38.4751 24.0762 38.8752C23.91 39.2752 23.8666 39.7154 23.9513 40.1401C24.036 40.5648 24.245 40.9549 24.5521 41.2611C24.8591 41.5673 25.2502 41.7758 25.6761 41.8602C26.1019 41.9447 26.5433 41.9014 26.9444 41.7357C27.3455 41.57 27.6884 41.2893 27.9296 40.9293C28.1708 40.5693 28.2996 40.146 28.2996 39.713C28.3008 39.4249 28.245 39.1394 28.1353 38.8729C28.0257 38.6064 27.8644 38.364 27.6607 38.1598C27.457 37.9555 27.2148 37.7934 26.9481 37.6827C26.6815 37.5719 26.3955 37.5148 26.1066 37.5145L26.1043 37.5237ZM13.3332 37.5237C12.8991 37.5237 12.4746 37.6521 12.1136 37.8926C11.7526 38.1332 11.4712 38.4751 11.3051 38.8752C11.1389 39.2752 11.0955 39.7154 11.1802 40.1401C11.2649 40.5648 11.4739 40.9549 11.781 41.2611C12.088 41.5673 12.4791 41.7758 12.905 41.8602C13.3308 41.9447 13.7722 41.9014 14.1733 41.7357C14.5744 41.57 14.9173 41.2893 15.1585 40.9293C15.3997 40.5693 15.5285 40.146 15.5285 39.713C15.5297 39.4249 15.4739 39.1394 15.3642 38.8729C15.2546 38.6064 15.0933 38.364 14.8896 38.1598C14.6859 37.9555 14.4437 37.7934 14.177 37.6827C13.9104 37.5719 13.6244 37.5148 13.3355 37.5145L13.3332 37.5237ZM51.6488 29.9505C52.083 29.9505 52.5074 29.8221 52.8684 29.5816C53.2295 29.341 53.5108 28.9991 53.677 28.599C53.8431 28.199 53.8866 27.7588 53.8019 27.3341C53.7172 26.9094 53.5081 26.5193 53.2011 26.2131C52.8941 25.907 52.5029 25.6984 52.0771 25.614C51.6513 25.5295 51.2099 25.5728 50.8088 25.7386C50.4076 25.9043 50.0648 26.1849 49.8236 26.5449C49.5823 26.9049 49.4536 27.3282 49.4536 27.7612C49.4533 28.0491 49.5099 28.3342 49.6203 28.6003C49.7306 28.8663 49.8924 29.108 50.0966 29.3116C50.3007 29.5152 50.5431 29.6766 50.8098 29.7866C51.0766 29.8967 51.3625 29.9531 51.6511 29.9528L51.6488 29.9505ZM38.8777 25.5719C38.4436 25.5719 38.0191 25.7003 37.6581 25.9409C37.2971 26.1814 37.0157 26.5234 36.8496 26.9234C36.6834 27.3234 36.64 27.7636 36.7247 28.1883C36.8094 28.613 37.0184 29.0031 37.3255 29.3093C37.6325 29.6155 38.0236 29.824 38.4495 29.9085C38.8753 29.993 39.3167 29.9496 39.7178 29.7839C40.1189 29.6182 40.4618 29.3376 40.703 28.9775C40.9442 28.6175 41.073 28.1942 41.073 27.7612C41.0724 27.1814 40.8411 26.6254 40.43 26.2154C40.0189 25.8054 39.4615 25.5748 38.88 25.5742L38.8777 25.5719ZM26.1043 25.5719C25.6702 25.5719 25.2457 25.7003 24.8847 25.9409C24.5237 26.1814 24.2423 26.5234 24.0762 26.9234C23.91 27.3234 23.8666 27.7636 23.9513 28.1883C24.036 28.613 24.245 29.0031 24.5521 29.3093C24.8591 29.6155 25.2502 29.824 25.6761 29.9085C26.1019 29.993 26.5433 29.9496 26.9444 29.7839C27.3455 29.6182 27.6884 29.3376 27.9296 28.9775C28.1708 28.6175 28.2996 28.1942 28.2996 27.7612C28.299 27.1814 28.0677 26.6254 27.6566 26.2154C27.2455 25.8054 26.688 25.5748 26.1066 25.5742L26.1043 25.5719ZM51.6465 37.5053C51.2124 37.5053 50.7879 37.6337 50.4269 37.8743C50.0659 38.1148 49.7845 38.4568 49.6184 38.8568C49.4522 39.2569 49.4088 39.6971 49.4935 40.1217C49.5782 40.5464 49.7872 40.9365 50.0943 41.2427C50.4013 41.5489 50.7924 41.7574 51.2183 41.8419C51.6441 41.9264 52.0855 41.883 52.4866 41.7173C52.8877 41.5516 53.2306 41.271 53.4718 40.911C53.713 40.5509 53.8418 40.1276 53.8418 39.6946C53.8394 39.1164 53.6076 38.5626 53.1972 38.1541C52.7868 37.7456 52.231 37.5157 51.6511 37.5145L51.6465 37.5053ZM38.8754 49.4387C38.4413 49.4387 38.0168 49.5671 37.6558 49.8077C37.2948 50.0483 37.0134 50.3902 36.8473 50.7902C36.6811 51.1903 36.6377 51.6305 36.7224 52.0551C36.8071 52.4798 37.0161 52.8699 37.3232 53.1761C37.6302 53.4823 38.0213 53.6908 38.4472 53.7753C38.873 53.8598 39.3144 53.8164 39.7155 53.6507C40.1166 53.485 40.4595 53.2044 40.7007 52.8444C40.9419 52.4843 41.0707 52.061 41.0707 51.628C41.0658 51.0514 40.833 50.4999 40.4229 50.0934C40.0127 49.6869 39.4583 49.4583 38.88 49.4571L38.8754 49.4387Z" fill="#0033A0"/>
<path fill-rule="evenodd" clip-rule="evenodd" d="M64.6316 51.0497V61.3973C64.6398 61.6114 64.6045 61.825 64.528 62.0251C64.4515 62.2253 64.3352 62.4081 64.1863 62.5624C64.0373 62.7167 63.8586 62.8395 63.6609 62.9234C63.4632 63.0072 63.2506 63.0504 63.0358 63.0504C62.821 63.0504 62.6084 63.0072 62.4107 62.9234C62.213 62.8395 62.0343 62.7167 61.8854 62.5624C61.7364 62.4081 61.6201 62.2253 61.5436 62.0251C61.4671 61.825 61.4318 61.6114 61.44 61.3973V51.0497C61.4318 50.8356 61.4671 50.6221 61.5436 50.4219C61.6201 50.2217 61.7364 50.039 61.8854 49.8847C62.0343 49.7303 62.213 49.6076 62.4107 49.5237C62.6084 49.4398 62.821 49.3966 63.0358 49.3966C63.2506 49.3966 63.4632 49.4398 63.6609 49.5237C63.8586 49.6076 64.0373 49.7303 64.1863 49.8847C64.3352 50.039 64.4515 50.2217 64.528 50.4219C64.6045 50.6221 64.6398 50.8356 64.6316 51.0497Z" fill="#FF6A13"/>
<path fill-rule="evenodd" clip-rule="evenodd" d="M70.6145 62.9901H63.0209C62.8062 62.9982 62.5921 62.963 62.3914 62.8867C62.1906 62.8104 62.0074 62.6945 61.8527 62.5459C61.6979 62.3973 61.5748 62.2191 61.4907 62.022C61.4066 61.8248 61.3633 61.6128 61.3633 61.3986C61.3633 61.1843 61.4066 60.9723 61.4907 60.7751C61.5748 60.578 61.6979 60.3998 61.8527 60.2512C62.0074 60.1026 62.1906 59.9867 62.3914 59.9104C62.5921 59.8341 62.8062 59.7989 63.0209 59.8071H70.6145C70.8291 59.7989 71.0432 59.8341 71.244 59.9104C71.4447 59.9867 71.6279 60.1026 71.7827 60.2512C71.9374 60.3998 72.0605 60.578 72.1446 60.7751C72.2287 60.9723 72.272 61.1843 72.272 61.3986C72.272 61.6128 72.2287 61.8248 72.1446 62.022C72.0605 62.2191 71.9374 62.3973 71.7827 62.5459C71.6279 62.6945 71.4447 62.8104 71.244 62.8867C71.0432 62.963 70.8291 62.9982 70.6145 62.9901Z" fill="#FF6A13"/>
<path d="M61.5804 46.3131V43.3068C57.5084 43.7807 53.7455 45.7067 50.9854 48.7298C48.2252 51.7528 46.6539 55.669 46.5611 59.7565H49.5525C49.643 56.4601 50.9003 53.302 53.1017 50.8415C55.3032 48.381 58.3067 46.7768 61.5804 46.3131Z" fill="#FF6A13"/>
<path d="M64.4867 43.2082V46.1915C67.0965 46.3701 69.6037 47.2754 71.7233 48.8043C73.8429 50.3332 75.4899 52.4246 76.4771 54.8405C77.4643 57.2565 77.752 59.9003 77.3077 62.4712C76.8633 65.0422 75.7046 67.4372 73.9633 69.3841C72.222 71.3311 69.9679 72.7517 67.4573 73.4847C64.9468 74.2176 62.2804 74.2334 59.7612 73.5303C57.2421 72.8272 54.9712 71.4333 53.2069 69.5072C51.4425 67.581 50.2553 65.1999 49.7803 62.6344H46.7429C47.2229 65.7977 48.5919 68.7607 50.6913 71.1799C52.7907 73.5991 55.5344 75.3755 58.6047 76.3033C61.6749 77.231 64.9459 77.2721 68.0386 76.4218C71.1313 75.5715 73.919 73.8645 76.0788 71.4988C78.2386 69.1331 79.6821 66.2055 80.2418 63.0552C80.8016 59.9048 80.4547 56.6608 79.2415 53.699C78.0283 50.7372 75.9984 48.1789 73.387 46.3205C70.7756 44.4622 67.6896 43.3798 64.4867 43.199V43.2082Z" fill="#FF6A13"/>
<path d="M46.5611 59.7451H6.1607C5.42835 59.7451 4.726 59.4549 4.20815 58.9385C3.6903 58.422 3.39938 57.7216 3.39938 56.9912V11.2013C3.39938 10.471 3.6903 9.7705 4.20815 9.25405C4.726 8.7376 5.42835 8.44747 6.1607 8.44747H58.8259C59.5583 8.44747 60.2606 8.7376 60.7785 9.25405C61.2963 9.7705 61.5873 10.471 61.5873 11.2013V43.2953C62.2334 43.2199 62.8834 43.1816 63.534 43.1806C63.8561 43.1806 64.176 43.1806 64.4936 43.2081V11.2013C64.4917 9.70463 63.8947 8.26976 62.8335 7.21143C61.7724 6.1531 60.3336 5.55773 58.8328 5.55591H6.1607C4.65995 5.55773 3.22119 6.1531 2.16 7.21143C1.09881 8.26976 0.501827 9.70463 0.5 11.2013V56.9981C0.501827 58.4948 1.09881 59.9296 2.16 60.988C3.22119 62.0463 4.65995 62.6417 6.1607 62.6435H46.7429C46.6168 61.8079 46.553 60.9641 46.5519 60.1191C46.5519 59.986 46.5588 59.8667 46.5611 59.7451Z" fill="#0033A0"/>
<path d="M49.5433 60.1077C49.5433 59.9861 49.5433 59.8667 49.5433 59.7451H46.5519C46.5519 59.8667 46.5519 59.9861 46.5519 60.1077C46.553 60.9527 46.6168 61.7965 46.7429 62.6321H49.7803C49.6237 61.7997 49.5444 60.9546 49.5433 60.1077Z" fill="#FF6A13"/>
<path d="M61.5804 43.2953V46.3131C62.2252 46.2219 62.8757 46.1758 63.5271 46.1754C63.8492 46.1754 64.1691 46.1892 64.4866 46.2121V43.2288C64.1691 43.2127 63.8492 43.2012 63.5271 43.2012C62.8769 43.1954 62.2269 43.2268 61.5804 43.2953Z" fill="#FF6A13"/>
<path d="M62.7816 17.129H1.52629V20.0275H62.7816V17.129Z" fill="#0033A0"/>
<path d="M14.7484 13.207C14.5575 13.207 14.3685 13.1695 14.1922 13.0966C14.0159 13.0236 13.8557 12.9168 13.7209 12.7821C13.586 12.6474 13.4791 12.4875 13.4063 12.3115C13.3334 12.1355 13.2961 11.947 13.2964 11.7566V1.45031C13.2886 1.25514 13.3204 1.06042 13.39 0.877815C13.4595 0.695212 13.5653 0.528494 13.701 0.387662C13.8367 0.246829 13.9995 0.134785 14.1797 0.0582482C14.3599 -0.0182888 14.5537 -0.0577393 14.7496 -0.0577393C14.9454 -0.0577393 15.1392 -0.0182888 15.3194 0.0582482C15.4996 0.134785 15.6624 0.246829 15.7981 0.387662C15.9339 0.528494 16.0396 0.695212 16.1091 0.877815C16.1787 1.06042 16.2105 1.25514 16.2027 1.45031V11.7566C16.2027 12.1413 16.0495 12.5102 15.7767 12.7822C15.504 13.0542 15.1341 13.207 14.7484 13.207Z" fill="#0033A0"/>
<path d="M50.0127 13.2071C49.8219 13.2071 49.6329 13.1696 49.4565 13.0967C49.2802 13.0237 49.1201 12.9169 48.9852 12.7822C48.8503 12.6474 48.7434 12.4875 48.6706 12.3116C48.5978 12.1356 48.5604 11.9471 48.5607 11.7567V1.45039C48.5607 1.06634 48.7137 0.698017 48.986 0.426451C49.2583 0.154885 49.6276 0.00231934 50.0127 0.00231934C50.3978 0.00231934 50.7671 0.154885 51.0394 0.426451C51.3117 0.698017 51.4647 1.06634 51.4647 1.45039V11.7567C51.465 11.9471 51.4277 12.1356 51.3549 12.3116C51.282 12.4875 51.1751 12.6474 51.0403 12.7822C50.9054 12.9169 50.7452 13.0237 50.5689 13.0967C50.3926 13.1696 50.2036 13.2071 50.0127 13.2071Z" fill="#0033A0"/>
</g>
<defs>
<clipPath id="clip0_535_1851">
<rect width="80" height="80" fill="white" transform="translate(0.5)"/>
</clipPath>
</defs>
</svg>
