<svg id="Layer_1" data-name="Layer 1" xmlns="http://www.w3.org/2000/svg" viewBox="0 0 420.28 89.79"><defs><style>.cls-1{fill:none;}.cls-2{fill:#00319a;}.cls-3{fill:#f47634;}</style></defs><path class="cls-1" d="M203.37,84.75h-4.74v5h4.74A2.39,2.39,0,0,0,206,87.61a1.86,1.86,0,0,0,0-.41,2.41,2.41,0,0,0-2.36-2.46Z" transform="translate(-9.38 -2)"/><path class="cls-1" d="M307.07,80.8a2.75,2.75,0,0,0-2.7-2.8h-4.25v5.57h4A2.74,2.74,0,0,0,307.06,81,1.93,1.93,0,0,0,307.07,80.8Z" transform="translate(-9.38 -2)"/><path class="cls-1" d="M354.2,78h-3.29V89.7h3.29a5.51,5.51,0,0,0,5.74-5.29,4.86,4.86,0,0,0,0-.54A5.43,5.43,0,0,0,354.2,78Z" transform="translate(-9.38 -2)"/><path class="cls-1" d="M175.41,11.8h-11V25.34h11c4.19,0,7.36-2.65,7.36-6.77S179.6,11.8,175.41,11.8Z" transform="translate(-9.38 -2)"/><path class="cls-1" d="M98.84,11.28C89.78,11.28,84,18.2,84,27.4s5.82,16.13,14.88,16.13,14.94-7,14.94-16.13S107.9,11.28,98.84,11.28Z" transform="translate(-9.38 -2)"/><path class="cls-1" d="M205.73,80.35A2.27,2.27,0,0,0,203.54,78h-4.91v4.64h4.62a2.25,2.25,0,0,0,2.47-2C205.73,80.55,205.73,80.45,205.73,80.35Z" transform="translate(-9.38 -2)"/><path class="cls-1" d="M409.7,80.8A2.76,2.76,0,0,0,407,78h-4.25v5.57h4A2.74,2.74,0,0,0,409.69,81,1.93,1.93,0,0,0,409.7,80.8Z" transform="translate(-9.38 -2)"/><path class="cls-2" d="M205.41,83.61A3.6,3.6,0,0,0,208.18,80c0-2.3-1.65-4-4.48-4h-7.45V91.8h7.66c2.93,0,4.59-1.79,4.59-4.28A3.91,3.91,0,0,0,205.41,83.61ZM198.63,78h4.62a2.32,2.32,0,1,1,.3,4.64h-4.92Zm4.74,11.69h-4.74v-5h4.74A2.41,2.41,0,0,1,206,86.9c0,.1,0,.2,0,.3a2.38,2.38,0,0,1-2.25,2.51,2.84,2.84,0,0,1-.41,0Z" transform="translate(-9.38 -2)"/><polygon class="cls-2" points="217.81 81.01 213.14 73.91 210.4 73.91 216.62 83.15 216.62 89.79 219 89.79 219 83.15 225.19 73.91 222.43 73.91 217.81 81.01"/><path class="cls-2" d="M309.5,80.8a4.74,4.74,0,0,0-5.09-4.89h-6.7V91.8h2.38V85.68h3l3.83,6.12h2.76l-4.07-6.36A4.42,4.42,0,0,0,309.5,80.8Zm-9.4,2.78V78h4a2.79,2.79,0,1,1,0,5.57h-4Z" transform="translate(-9.38 -2)"/><polygon class="cls-2" points="319.16 81.01 314.49 73.91 311.75 73.91 317.96 83.15 317.96 89.79 320.34 89.79 320.34 83.15 326.54 73.91 323.77 73.91 319.16 81.01"/><path class="cls-2" d="M354.2,75.91h-5.67V91.8h5.67c4.94,0,8.23-3.34,8.23-7.93S359.14,75.91,354.2,75.91Zm0,13.79h-3.29V78h3.29c3.73,0,5.74,2.59,5.74,5.86a5.52,5.52,0,0,1-5.2,5.82A4.87,4.87,0,0,1,354.2,89.7Z" transform="translate(-9.38 -2)"/><polygon class="cls-2" points="366.64 89.79 377.3 89.79 377.3 87.69 369.02 87.69 369.02 82.75 377.14 82.75 377.14 80.65 369.02 80.65 369.02 76.01 377.3 76.01 377.3 73.91 366.64 73.91 366.64 89.79"/><path class="cls-2" d="M412.15,80.8a4.74,4.74,0,0,0-5.09-4.89h-6.71V91.8h2.39V85.68h3l3.83,6.12h2.77l-4.07-6.36A4.43,4.43,0,0,0,412.15,80.8Zm-9.4,2.78V78h4a2.79,2.79,0,0,1,0,5.57h-4Z" transform="translate(-9.38 -2)"/><polygon class="cls-2" points="0 10.01 14.36 10.01 14.36 49.92 24.89 49.92 24.89 10.01 39.17 10.01 51.7 0.81 0 0.81 0 10.01"/><path class="cls-2" d="M98.84,2C84,2,73.21,12.6,73.21,27.4S84,52.81,98.84,52.81,124.53,42.2,124.53,27.4,113.72,2,98.84,2Zm0,41.53c-9.06,0-14.88-7-14.88-16.13s5.82-16.12,14.88-16.12,14.94,6.92,14.94,16.12S107.9,43.53,98.84,43.53Z" transform="translate(-9.38 -2)"/><path class="cls-2" d="M193.44,18.64c0-9.13-6.26-15.83-16.49-15.83H154V51.93h10.46V34.32h7.66l9.65,17.61h12L182.7,33.22C188,32,193.44,27.33,193.44,18.64Zm-18,6.7h-11V11.8h11c4.19,0,7.36,2.65,7.36,6.77S179.6,25.34,175.41,25.34Z" transform="translate(-9.38 -2)"/><path class="cls-2" d="M335.1,32c0,6.85-3.76,11.56-11.27,11.56S312.42,38.82,312.42,32V2.81H301.84V32.34c0,12.07,7,20.47,22,20.47s21.86-8.32,21.86-20.55V2.81H335.1Z" transform="translate(-9.38 -2)"/><polygon class="cls-2" points="402.87 40.87 378.57 40.87 378.57 29.45 402.36 29.45 402.36 20.47 378.57 20.47 378.57 9.79 402.87 9.79 415.4 0.81 368.12 0.81 368.12 49.92 402.87 49.92 402.87 40.87"/><polygon class="cls-2" points="408.18 41.53 410.11 41.53 410.11 46.93 410.85 46.93 410.85 41.53 412.79 41.53 412.79 40.87 408.18 40.87 408.18 41.53"/><polygon class="cls-2" points="419.19 40.87 417.3 45.49 415.42 40.87 414.34 40.87 414.34 46.93 415.09 46.93 415.09 41.88 417.15 46.93 417.46 46.93 419.52 41.88 419.52 46.93 420.28 46.93 420.28 40.87 419.19 40.87"/><path class="cls-3" d="M251.16,52.44c12.51-1.91,21.21-11.78,21.21-25,0-14.8-10.83-25.4-25.69-25.4s-25.63,10.6-25.63,25.4a25.27,25.27,0,0,0,6.7,17.65,4.07,4.07,0,0,0,.43.49l47.59,45.88ZM228.75,27.25l8.92-15.47h17.86l8.92,15.47-8.92,15.46H237.67Z" transform="translate(-9.38 -2)"/></svg>