<svg width="43" height="43" viewBox="0 0 43 43" fill="none" xmlns="http://www.w3.org/2000/svg">
<rect width="43" height="43" rx="5.73333" fill="#4353FF"/>
<path d="M29.6237 17.0009C29.6237 17.0009 27.2195 24.552 27.0236 25.1753C26.9524 24.5342 25.1892 10.9814 25.1892 10.9814C21.0931 10.9814 18.9026 13.9021 17.745 16.9831C17.745 16.9831 14.8243 24.552 14.575 25.1932C14.5572 24.6054 14.1297 17.0722 14.1297 17.0722C13.8804 13.2966 10.4254 10.9992 7.62939 10.9992L11.0131 31.5332C15.3052 31.5154 17.6203 28.6125 18.8314 25.5315C18.8314 25.5315 21.4137 18.8531 21.5206 18.5503C21.5384 18.8353 23.3727 31.5332 23.3727 31.5332C27.6825 31.5332 29.9977 28.8084 31.2444 25.8343L37.2817 10.9992C33.0253 10.9992 30.7813 13.9021 29.6237 17.0009Z" fill="white"/>
</svg>
