<svg width="68" height="69" viewBox="0 0 68 69" fill="none" xmlns="http://www.w3.org/2000/svg">
<path fill-rule="evenodd" clip-rule="evenodd" d="M33.5856 38.1648C33.967 38.5462 34.539 38.5462 34.9204 38.1648L49.2855 24.8167C49.5398 24.3082 49.4762 23.4819 48.4592 23.4819L20.0468 23.5455C19.2841 23.5455 18.6485 24.2447 19.2205 24.8803L33.5856 38.1648ZM49.5398 30.0288C49.5398 29.3932 48.777 29.0118 48.2685 29.4568L37.018 39.8174C36.2553 40.5166 35.3018 40.898 34.2848 40.898C33.2678 40.898 32.3144 40.5166 31.5517 39.881L20.3647 29.4568C19.8562 29.0118 19.0934 29.3296 19.0934 30.0288C19.0299 29.8381 19.0299 44.4575 19.0299 44.4575C19.0299 45.8559 20.174 47 21.5724 47H46.9973C48.3957 47 49.5398 45.8559 49.5398 44.4575V30.0288Z" fill="#0033A0"/>
<path d="M66 34.6875C66 52.4758 51.762 66.8541 34.25 66.8541C16.738 66.8541 2.5 52.4758 2.5 34.6875C2.5 16.8991 16.738 2.52081 34.25 2.52081C51.762 2.52081 66 16.8991 66 34.6875Z" stroke="#FF6A13" stroke-width="4"/>
</svg>
