<?xml version="1.0" encoding="utf-8"?>
<!-- Generator: Adobe Illustrator 26.3.1, SVG Export Plug-In . SVG Version: 6.00 Build 0)  -->
<svg version="1.1" id="Layer_1" xmlns="http://www.w3.org/2000/svg" xmlns:xlink="http://www.w3.org/1999/xlink" x="0px" y="0px"
	 viewBox="0 0 20 20" style="enable-background:new 0 0 20 20;" xml:space="preserve">
<style type="text/css">
	.st0{fill:#FFFFFF;}
</style>
<path class="st0" d="M9.6,12c0.2,0.2,0.6,0.2,0.8,0l8.7-8.1c0.2-0.3,0.1-0.8-0.5-0.8l-17.2,0c-0.5,0-0.8,0.4-0.5,0.8L9.6,12L9.6,12z
	 M19.2,7c0-0.4-0.5-0.6-0.8-0.3L11.7,13c-0.5,0.4-1,0.7-1.7,0.7c-0.6,0-1.2-0.2-1.7-0.6L1.6,6.7C1.3,6.4,0.8,6.6,0.8,7
	c0-0.1,0,8.7,0,8.7c0,0.8,0.7,1.5,1.5,1.5h15.4c0.8,0,1.5-0.7,1.5-1.5V7z"/>
</svg>
