<?xml version="1.0" encoding="utf-8"?>
<!-- Generator: Adobe Illustrator 25.2.3, SVG Export Plug-In . SVG Version: 6.00 Build 0)  -->
<svg version="1.1" id="Layer_1" xmlns="http://www.w3.org/2000/svg" xmlns:xlink="http://www.w3.org/1999/xlink" x="0px" y="0px"
	 viewBox="0 0 80 80" style="enable-background:new 0 0 80 80;" xml:space="preserve">
<style type="text/css">
	.st0{fill:none;}
	.st1{fill:#19468D;}
	.st2{fill:#F36E24;}
	.st3{fill-rule:evenodd;clip-rule:evenodd;fill:#F36E24;}
	.st4{fill-rule:evenodd;clip-rule:evenodd;fill:#19468D;}
</style>
<g>
	<rect x="16.3" y="13" class="st0" width="58.5" height="56.4"/>
	<path class="st1" d="M61.9,25.6H17.1v2.1h44.8V25.6z"/>
	<path class="st1" d="M48,57.8c0-0.6-0.5-1.1-1.1-1.1H20.5c-0.5,0-1-0.2-1.4-0.6c-0.4-0.4-0.6-0.9-0.6-1.4V21.2c0-0.5,0.2-1,0.6-1.4
		c0.4-0.4,0.9-0.6,1.4-0.6H59c0.5,0,1,0.2,1.4,0.6c0.4,0.4,0.6,0.9,0.6,1.4v20.4c0,0.6,0.5,1.1,1.1,1.1l0,0c0.6,0,1.1-0.5,1.1-1.1
		V21.2c0-1.1-0.4-2.1-1.2-2.9c-0.8-0.8-1.8-1.2-2.9-1.2H20.5c-1.1,0-2.2,0.4-2.9,1.2c-0.8,0.8-1.2,1.8-1.2,2.9v33.5
		c0,1.1,0.4,2.1,1.2,2.9c0.8,0.8,1.8,1.2,2.9,1.2h26.5C47.5,58.9,48,58.4,48,57.8L48,57.8z"/>
	<path class="st2" d="M62.5,44.6c-6.9,0-12.4,5.6-12.4,12.4c0,6.9,5.6,12.4,12.4,12.4c6.9,0,12.4-5.6,12.4-12.4
		C74.9,50.1,69.3,44.6,62.5,44.6z M62.5,67.2c-5.6,0-10.2-4.6-10.2-10.2c0-5.6,4.6-10.2,10.2-10.2c5.6,0,10.2,4.6,10.2,10.2
		C72.7,62.6,68.1,67.2,62.5,67.2z"/>
	<path class="st3" d="M62.1,58.9L62.1,58.9c-0.6,0-1.1-0.5-1.1-1.1v-7.5c0-0.6,0.5-1.1,1.1-1.1h0c0.6,0,1.1,0.5,1.1,1.1v7.5
		C63.2,58.4,62.7,58.9,62.1,58.9z"/>
	<path class="st3" d="M61,57.8L61,57.8c0-0.6,0.5-1.1,1.1-1.1h6.1c0.6,0,1.1,0.5,1.1,1.1v0c0,0.6-0.5,1.1-1.1,1.1h-6.1
		C61.5,58.9,61,58.4,61,57.8z"/>
	<circle class="st4" cx="35.1" cy="33.3" r="1.6"/>
	<circle class="st4" cx="44.4" cy="33.3" r="1.6"/>
	<circle class="st4" cx="53.8" cy="33.3" r="1.6"/>
	<circle class="st4" cx="35.1" cy="42.1" r="1.6"/>
	<circle class="st4" cx="44.4" cy="42.1" r="1.6"/>
	<circle class="st4" cx="53.8" cy="42.1" r="1.6"/>
	<circle class="st4" cx="25.7" cy="42.1" r="1.6"/>
	<circle class="st4" cx="35.1" cy="50.8" r="1.6"/>
	<circle class="st4" cx="25.7" cy="50.8" r="1.6"/>
	<circle class="st4" cx="44.4" cy="50.8" r="1.6"/>
	<path class="st4" d="M52.6,22.7L52.6,22.7c-0.6,0-1.1-0.5-1.1-1.1v-7.5c0-0.6,0.5-1.1,1.1-1.1h0c0.6,0,1.1,0.5,1.1,1.1v7.5
		C53.6,22.2,53.2,22.7,52.6,22.7z"/>
	<path class="st4" d="M26.8,22.7L26.8,22.7c-0.6,0-1.1-0.5-1.1-1.1v-7.5c0-0.6,0.5-1.1,1.1-1.1h0c0.6,0,1.1,0.5,1.1,1.1v7.5
		C27.8,22.2,27.3,22.7,26.8,22.7z"/>
</g>
</svg>
