<?xml version="1.0" encoding="utf-8"?>
<!-- Generator: Adobe Illustrator 25.2.3, SVG Export Plug-In . SVG Version: 6.00 Build 0)  -->
<svg version="1.1" id="Layer_1" xmlns="http://www.w3.org/2000/svg" xmlns:xlink="http://www.w3.org/1999/xlink" x="0px" y="0px"
	 viewBox="0 0 80 80" style="enable-background:new 0 0 80 80;" xml:space="preserve">
<style type="text/css">
	.st0{fill:#F36E24;}
	.st1{fill:#19468D;}
	.st2{fill-rule:evenodd;clip-rule:evenodd;fill:#F36E24;}
</style>
<g>
	<g>
		<path class="st0" d="M48.7,63.2c-2.6,0-4.7-1.4-4.7-3.2c0-1.8,2.1-3.2,4.7-3.2c2.6,0,4.7,1.4,4.7,3.2
			C53.4,61.8,51.4,63.2,48.7,63.2z M48.7,58.4c-1.7,0-3.1,0.8-3.1,1.6c0,0.7,1.3,1.6,3.1,1.6c1.7,0,3.1-0.8,3.1-1.6
			C51.8,59.3,50.5,58.4,48.7,58.4z"/>
	</g>
	<g>
		<path class="st1" d="M57.3,70.3h5.1l-1.6-14.9c-0.5-4.2-5.6-7-10.2-8.1c-0.9-0.2-1.8-0.4-2.7-0.5l3.8,5.2c0.2,0.3,0.2,0.6,0.1,0.9
			c-0.2,0.3-0.5,0.4-0.8,0.4l-4.1-0.4l-6.1,6.6l0,10.8h14.9l-0.3-11.4c0-0.5,0.3-0.8,0.8-0.8c0,0,0,0,0,0c0.4,0,0.8,0.4,0.8,0.8
			L57.3,70.3z M24.2,70.3h14.9l0-10.8L33,52.9l-4.1,0.4c-0.3,0-0.6-0.1-0.8-0.4C28,52.6,28,52.3,28.2,52l3.9-5.2
			c-1,0.1-1.9,0.3-2.8,0.5c-4.6,1.2-9.7,3.9-10.2,8.1l-1.6,14.9h5.1l0.3-11.5c0-0.5,0.4-0.8,0.8-0.8c0.5,0,0.8,0.4,0.8,0.8
			L24.2,70.3z M16.6,72c-0.2,0-0.5-0.1-0.6-0.3c-0.2-0.2-0.2-0.4-0.2-0.6l1.7-15.8c0.6-5.1,6.3-8.3,11.5-9.6
			c1.4-0.3,4.5-0.7,4.6-0.7c0.6,0,1.2,0.3,1.5,0.9l5,11.4L45,46c0.3-0.6,1-1,1.7-0.9c1.3,0.2,3.4,0.4,4.3,0.7
			c5.1,1.3,10.8,4.5,11.5,9.5l1.7,15.8c0,0.2-0.1,0.5-0.2,0.6c-0.2,0.2-0.4,0.3-0.6,0.3H16.6z M33.3,51.3c0.2,0,0.4,0.1,0.6,0.3
			l4.1,4.7l-4.3-9.1l-3.1,4.4L33.3,51.3C33.2,51.3,33.3,51.3,33.3,51.3z M46.2,47.1l-4.4,9.1l4.2-4.7c0.2-0.2,0.4-0.3,0.7-0.3
			l2.6,0.3L46.2,47.1z"/>
	</g>
	<g>
		<path class="st1" d="M47.6,28.7c-0.7,0-1.3-0.1-2-0.2c-0.4-0.1-0.7-0.1-1.2-0.2c-3-0.4-6-0.4-9,0c-0.4,0.1-0.8,0.1-1.2,0.2
			c-2.2,0.4-4.2,0.7-5.9-2.4c-0.1-0.1-0.3-0.7-0.3-0.8c0.1-2.4,0.2-4.8,0.4-7.2c0.7-5.3,6.2-7.7,11.4-7.7c0,0,0,0,0,0h0c0,0,0,0,0,0
			c5.2,0,10.8,2.4,11.4,7.6c0.1,2.4,0.2,4.8,0.4,7.1l0,0.1c0,0.1-0.2,0.7-0.2,0.7C50.4,28.2,49,28.7,47.6,28.7z M39.9,26.4
			c1.6,0,3.1,0.1,4.7,0.3c0.4,0.1,0.8,0.1,1.2,0.2c1.8,0.3,2.8,0,3.7-1.3c-6.3-1.6-12.9-1.6-19.2,0c0.9,1.3,1.9,1.6,3.7,1.3
			c0.4-0.1,0.8-0.1,1.2-0.2C36.8,26.5,38.4,26.4,39.9,26.4z M39.9,22.7c3.4,0,6.8,0.4,10.1,1.2c-0.1-2.1-0.2-3.7-0.3-5.8
			c-0.5-4.2-5.5-6.1-9.8-6.1c-4.3,0-9.3,1.9-9.8,6.2c-0.1,2-0.2,3.6-0.3,5.7C33.1,23.1,36.5,22.7,39.9,22.7z M39.9,21.5
			c-2.6,0-4.7-1.4-4.7-3.2c0-1.8,2.1-3.2,4.7-3.2c2.6,0,4.7,1.4,4.7,3.2C44.6,20.1,42.6,21.5,39.9,21.5z M39.9,16.7
			c-1.7,0-3.1,0.8-3.1,1.6c0,0.7,1.3,1.6,3.1,1.6c1.7,0,3.1-0.8,3.1-1.6C43,17.6,41.7,16.7,39.9,16.7z"/>
	</g>
	<path class="st2" d="M51.5,29.2L51.5,29.2c-0.3,0.3-0.3,0.7-0.1,1c0.1,0.2,0.2,0.5,0.2,0.9c0,1.1-0.8,2-1.5,2.1
		c-0.4,0.1-0.7,0.3-0.7,0.7c-0.3,2.1-0.8,3.8-1.3,4.7c-1.6,2.9-4.6,4.7-8.1,4.7c-3.5,0-6.5-1.7-8.1-4.7c-0.5-0.9-0.9-2.6-1.3-4.7
		c-0.1-0.4-0.3-0.6-0.7-0.7c-0.7-0.1-1.5-1-1.5-2.1c0-0.3,0.1-0.6,0.3-0.8c0.2-0.3,0.1-0.7-0.1-1v0c-0.4-0.4-1.1-0.4-1.4,0.1
		c-0.3,0.5-0.5,1.1-0.5,1.7c0,2.6,2.1,3.6,2.2,3.6l0.1,0l0,0.1c0,0,0.8,3.5,1.3,4.6c1.9,3.5,5.5,5.5,9.6,5.5c0,0,0,0,0,0
		c4.1,0,7.7-2.1,9.6-5.5c0.5-1,1-2.6,1.3-4.6l0-0.1l0.1,0c1.3-0.6,2.2-2.1,2.2-3.6c0-0.7-0.2-1.3-0.5-1.8
		C52.5,28.9,51.9,28.8,51.5,29.2z"/>
</g>
</svg>
