<svg width="80" height="81" viewBox="0 0 80 81" fill="none" xmlns="http://www.w3.org/2000/svg">
<path fill-rule="evenodd" clip-rule="evenodd" d="M25.4766 19.4568C25.8659 19.4062 26.2606 19.415 26.6473 19.4828C27.4264 19.6194 27.9472 20.3616 27.8106 21.1407C27.6741 21.9197 26.9318 22.4405 26.1528 22.304C26.0517 22.2862 25.9486 22.2839 25.8469 22.2969C25.4494 22.3501 24.8641 22.7798 24.8641 23.8637C24.8641 25.2361 25.8315 26.2839 26.6368 26.4188C27.2468 26.5211 27.7222 27.0033 27.8157 27.6147C28.2193 30.2536 28.7999 32.5164 29.4666 33.73L29.4673 33.7313C33.8861 41.796 46.1751 41.796 50.5939 33.7313L50.5946 33.73C51.2613 32.5163 51.8443 30.2528 52.2428 27.6171C52.3354 27.0045 52.8116 26.5209 53.4227 26.4187C54.2318 26.2835 55.1971 25.2365 55.1971 23.8637C55.1971 22.7781 54.6198 22.352 54.214 22.2969C54.1113 22.2839 54.0072 22.2863 53.9052 22.3041C53.1261 22.4402 52.3842 21.9189 52.2481 21.1398C52.112 20.3607 52.6332 19.6187 53.4124 19.4826C53.7994 19.415 54.1944 19.4063 54.5839 19.4567L54.5886 19.4573C56.7637 19.746 58.0613 21.7182 58.0613 23.8637C58.0613 25.9633 56.8307 28.0951 54.9319 28.9329C54.5262 31.3026 53.9311 33.6047 53.1054 35.1083C47.5993 45.1561 32.4611 45.1559 26.9554 35.1077C26.1297 33.6036 25.1282 28.9327 25.1282 28.9327C25.1282 28.9327 21.9999 27.6147 21.9999 23.8637C21.9999 21.7158 23.3092 19.7426 25.4737 19.4571L25.4766 19.4568Z" fill="#FF6A13"/>
<path d="M61.7789 62.5229L62.1707 78.8669M18.1034 78.8669L18.4952 62.5229M40.137 62.971V78.8669M54.6439 20.4452C45.1371 17.8268 35.0994 17.8268 25.5926 20.4452M8.99994 78.8645L11.2523 57.8069C11.975 51.9929 18.3146 47.8354 25.5058 46.0288C27.5764 45.5083 30.381 45.4473 32.4999 45.1865L40.137 60.7609L47.9999 45.1865C50.1174 45.4473 52.5186 45.5083 54.5876 46.0288C61.7789 47.8354 68.2967 51.9929 69.0194 57.8069L71.2741 78.8645H8.99994ZM51.4389 45.1865L54.9325 54.0553L48.9894 53.4805L41.2233 62.971H39.0554L31.2917 53.4805L25.3486 54.0553L28.8328 45.1865H51.4389ZM40.1183 1.40308C46.8027 1.40308 53.4919 4.4532 54.2896 10.5863C54.4609 13.7889 54.6087 16.9822 54.7589 20.1872C52.5135 24.7811 50.1673 23.5705 46.2326 23.0379C42.18 22.5564 38.0847 22.5564 34.0321 23.0379C30.0974 23.5587 27.7512 24.7811 25.5058 20.1872C25.6489 16.9822 25.7944 13.7889 25.9751 10.5863C26.7751 4.46493 33.4596 1.40308 40.1441 1.40308H40.1183ZM40.1183 7.97258C42.9713 7.97258 45.28 9.3991 45.28 11.1611C45.28 12.9232 42.9643 14.3473 40.1183 14.3473C37.2723 14.3473 34.9565 12.9208 34.9565 11.1611C34.9565 9.40145 37.2699 7.97258 40.1183 7.97258Z" stroke="#0033A0" stroke-width="2.5" stroke-miterlimit="2.61" stroke-linecap="round" stroke-linejoin="round"/>
<path fill-rule="evenodd" clip-rule="evenodd" d="M49.2723 66.167C48.5811 66.5942 48.45 66.995 48.45 67.1886C48.45 67.3806 48.5809 67.7817 49.2745 68.2098C49.9452 68.624 50.9627 68.9272 52.1617 68.9272C53.3603 68.9272 54.3778 68.6236 55.0487 68.2091C55.7429 67.7803 55.8735 67.3791 55.8735 67.1886C55.8735 66.997 55.7428 66.596 55.0501 66.1679C54.3802 65.7538 53.363 65.45 52.1617 65.45C50.9587 65.45 49.9416 65.7535 49.2723 66.167ZM47.7478 63.7001C48.9456 62.9599 50.5094 62.55 52.1617 62.55C53.8135 62.55 55.3772 62.9608 56.5749 63.701C57.7498 64.4273 58.7735 65.6205 58.7735 67.1886C58.7735 68.7578 57.7473 69.9508 56.5728 70.6764C55.3749 71.4163 53.8115 71.8272 52.1617 71.8272C50.5124 71.8272 48.949 71.4171 47.751 70.6774C46.5757 69.9519 45.55 68.7587 45.55 67.1886C45.55 65.6202 46.572 64.4267 47.7478 63.7001Z" fill="#FF6A13"/>
</svg>
