<?xml version="1.0" encoding="utf-8"?>
<!-- Generator: Adobe Illustrator 25.2.3, SVG Export Plug-In . SVG Version: 6.00 Build 0)  -->
<svg version="1.1" id="Layer_1" xmlns="http://www.w3.org/2000/svg" xmlns:xlink="http://www.w3.org/1999/xlink" x="0px" y="0px"
	 viewBox="0 0 80 80" style="enable-background:new 0 0 80 80;" xml:space="preserve">
<style type="text/css">
	.st0{fill:#F36E24;}
	.st1{fill:#19468D;}
	.st2{fill:#231F20;}
</style>
<path class="st0" d="M75.8,49.6l-8.9-3c-0.1,0-0.2,0-0.3,0c-0.2,0-0.3,0.1-0.5,0.2s-0.2,0.2-0.3,0.4l-0.3,0.7l-0.2-0.1
	c-0.5-0.2-1.2-0.9-1.4-2c-0.3-1.1-0.4-2.2-0.6-3.3c-0.1-0.8-0.2-1.7-0.4-2.6l0-0.1c-0.3-2-1.5-8.8-4-11.6c-1-1.1-1.5-2.4-2-3.6
	c-0.5-1.3-1-2.4-1.9-2.9c-0.4-0.2-0.8-0.3-1.2-0.3c-0.4,0-0.9,0.1-1.2,0.3c-1.4,0.7-2.3,2.4-2.5,3.8c-0.5,2.5,0.1,4.7,1.7,7l0,0.1
	v0.1c0,0.7,0,2.3,0.6,3.6c0.1,0.2,0.3,0.3,0.5,0.4c0.2,0.1,0.4,0.1,0.6,0c0.2-0.1,0.4-0.3,0.4-0.5c0.1-0.2,0.1-0.4,0-0.6
	c-0.4-1-0.5-2.6-0.4-3.2c0-0.2-0.1-0.4-0.2-0.6c-1.5-2-2-3.8-1.6-6c0.2-1.2,0.9-2.3,1.6-2.6c0.1-0.1,0.3-0.1,0.5-0.1
	c0.2,0,0.3,0.1,0.5,0.1c0.5,0.3,0.8,1.1,1.2,2.1c0.5,1.2,1.1,2.7,2.2,4c1.4,1.6,2.5,5.1,3.5,10.4c0.2,1,0.3,2,0.4,2.9
	c0.1,1.2,0.3,2.4,0.6,3.6c0.4,1.5,1.3,2.7,2.5,3.1l0.2,0.1l-4.5,13.4l-3-1c-0.4-0.1-0.8-0.2-1.3-0.2c-0.4,0-0.9,0.1-1.3,0.2
	c-0.2,0.1-0.4,0.2-0.7,0.3c-0.6,0.3-1.4,0.7-2.7,0.7c-1,0-2.2-0.2-3.6-0.7c-0.1,0-0.2,0-0.3,0c-0.2,0-0.4,0.1-0.5,0.2
	c-0.1,0.1-0.2,0.3-0.3,0.5c0,0.2,0,0.4,0.1,0.6c0.1,0.2,0.3,0.3,0.4,0.4c1.6,0.5,2.9,0.8,4.1,0.8c1.5,0,2.4-0.4,3.3-0.8
	c0.3-0.1,0.5-0.2,0.8-0.3c0.2-0.1,0.5-0.1,0.7-0.1c0.2,0,0.4,0,0.7,0.1l0,0h0l3,1L59.4,66c-0.1,0.2-0.1,0.4,0,0.6
	c0.1,0.2,0.3,0.3,0.5,0.4l8.9,3c0.1,0,0.2,0,0.3,0c0.2,0,0.3-0.1,0.5-0.2c0.1-0.1,0.2-0.2,0.3-0.4l6.4-18.9c0.1-0.2,0.1-0.4,0-0.6
	C76.2,49.8,76,49.7,75.8,49.6z M68.6,68.3l-7.4-2.5l5.9-17.4l7.4,2.5L68.6,68.3z"/>
<path class="st0" d="M65.5,65.4c0.1,0,0.2,0.1,0.4,0.1c0.3,0,0.5-0.1,0.7-0.3c0.2-0.2,0.3-0.4,0.4-0.7c0-0.3,0-0.5-0.1-0.8
	c-0.1-0.2-0.4-0.4-0.6-0.5c-0.1,0-0.2-0.1-0.4-0.1c-0.3,0-0.5,0.1-0.7,0.3c-0.2,0.2-0.3,0.4-0.4,0.7c0,0.3,0,0.5,0.1,0.8
	C65,65.2,65.2,65.4,65.5,65.4L65.5,65.4z"/>
<path class="st1" d="M26,27.8c0.1,0,0.2,0,0.3-0.1c0.1,0,0.2-0.1,0.3-0.2c0.1-0.1,0.1-0.2,0.2-0.3c0-0.1,0.1-0.2,0.1-0.3V16.4
	c0-0.6,0.2-1.2,0.7-1.6c0.4-0.4,1-0.7,1.6-0.7h19.4c0.6,0,1.2,0.2,1.6,0.7c0.4,0.4,0.7,1,0.7,1.6v2.7c0,0.1,0,0.2,0.1,0.3
	c0,0.1,0.1,0.2,0.2,0.3c0.1,0.1,0.2,0.1,0.3,0.2c0.1,0,0.2,0.1,0.3,0.1c0.1,0,0.2,0,0.3-0.1c0.1,0,0.2-0.1,0.3-0.2
	c0.1-0.1,0.1-0.2,0.2-0.3c0-0.1,0.1-0.2,0.1-0.3v-2.7c0-1-0.4-2-1.1-2.8c-0.7-0.7-1.7-1.1-2.8-1.1H29.1c-1,0-2,0.4-2.8,1.1
	c-0.7,0.7-1.1,1.7-1.1,2.8V27c0,0.2,0.1,0.4,0.2,0.6C25.6,27.7,25.8,27.8,26,27.8L26,27.8z"/>
<path class="st1" d="M52.4,57.1V38.5c0-0.1,0-0.2-0.1-0.3c0-0.1-0.1-0.2-0.2-0.3c-0.1-0.1-0.2-0.1-0.3-0.2c-0.1,0-0.2-0.1-0.3-0.1
	c-0.1,0-0.2,0-0.3,0.1c-0.1,0-0.2,0.1-0.3,0.2c-0.1,0.1-0.1,0.2-0.2,0.3c0,0.1-0.1,0.2-0.1,0.3v18.6c0,0.6-0.2,1.2-0.7,1.6
	s-1,0.7-1.6,0.7H29.1c-0.6,0-1.2-0.2-1.6-0.7c-0.4-0.4-0.7-1-0.7-1.6c0-0.1,0-0.2-0.1-0.3c0-0.1-0.1-0.2-0.2-0.3
	c-0.1-0.1-0.2-0.1-0.3-0.2c-0.1,0-0.2-0.1-0.3-0.1c-0.1,0-0.2,0-0.3,0.1c-0.1,0-0.2,0.1-0.3,0.2c-0.1,0.1-0.1,0.2-0.2,0.3
	c0,0.1-0.1,0.2-0.1,0.3c0,1,0.4,2,1.1,2.8c0.7,0.7,1.7,1.1,2.7,1.1h19.4c1,0,2-0.4,2.8-1.1C52,59.1,52.4,58.1,52.4,57.1L52.4,57.1z"
	/>
<path class="st2" d="M26.9,51.9L26.9,51.9C26.9,51.9,26.9,51.9,26.9,51.9L26.9,51.9L26.9,51.9z"/>
<path class="st0" d="M25.4,55.1L25.4,55.1c0.7,0,1.3-0.2,1.9-0.5c0.5-0.3,1-0.8,1.3-1.3s0.5-1.2,0.5-1.8c0-0.6-0.2-1.3-0.5-1.8
	l-0.1-0.2l0.2-0.1c0.4-0.2,0.7-0.4,1-0.7l0.1-0.1h0c0.4-0.4,0.7-0.8,0.9-1.3c0.2-0.5,0.3-1,0.2-1.6c0-0.5-0.2-1-0.5-1.5
	c-0.3-0.5-0.6-0.9-1-1.2l-0.2-0.1l0.2-0.1c0.5-0.4,0.8-0.9,1-1.4c0.2-0.5,0.3-1.1,0.3-1.7c-0.1-0.6-0.2-1.2-0.6-1.7
	c-0.3-0.5-0.7-0.9-1.3-1.2l-0.2-0.1l0.2-0.2c0.5-0.4,0.8-1,1-1.6c0.2-0.6,0.2-1.3,0.1-1.9c-0.1-0.6-0.4-1.2-0.8-1.7
	c-0.4-0.5-1-0.8-1.6-1.1l-1.5-0.5l0,0l-0.2-0.1c-0.1,0-0.3-0.1-0.4-0.1l-0.1,0h-0.1c-0.1,0-0.2,0-0.3,0c-0.8,0-1.5,0.2-2.1,0.7
	s-1.1,1.1-1.3,1.8c0,0,0,0.1,0,0.1v0c-0.1,0.5-0.2,0.9-0.1,1.4c0.1,0.5,0.2,0.9,0.4,1.4l0.1,0.2l-0.2,0.1c-0.4,0.2-0.7,0.4-1,0.7
	L20.5,36h0c-0.4,0.4-0.7,0.8-0.9,1.3c-0.2,0.5-0.3,1-0.2,1.6c0,0.5,0.2,1,0.5,1.5c0.3,0.5,0.6,0.9,1,1.2l0.2,0.1l-0.2,0.2
	c-0.5,0.4-0.9,1-1.1,1.6c-0.3,0.8-0.3,1.7,0,2.5c0.3,0.8,0.9,1.5,1.6,1.9l0.2,0.1l-0.2,0.2c-0.5,0.4-0.8,1-1,1.6
	c-0.2,0.6-0.2,1.3-0.1,1.9c0.1,0.6,0.4,1.2,0.8,1.7c0.4,0.5,1,0.8,1.6,1.1l1.5,0.5C24.5,55,24.9,55.1,25.4,55.1L25.4,55.1z M23,32.6
	c0.1-0.4,0.4-0.8,0.8-1.1s0.8-0.4,1.3-0.3h0h0h0c0.1,0,0.2,0,0.4,0.1l1.5,0.5c0.5,0.2,0.9,0.5,1.2,1s0.3,1,0.1,1.5s-0.5,0.9-1,1.2
	c-0.5,0.2-1,0.3-1.5,0.1l-0.1,0l-1.3-0.4l-0.2-0.1l0,0c-0.4-0.2-0.8-0.6-1-1C22.9,33.6,22.9,33.1,23,32.6L23,32.6z M21.1,38.1
	L21.1,38.1c0-0.1,0.1-0.1,0.1-0.2c0.2-0.5,0.5-0.9,1-1.1c0.5-0.2,1-0.3,1.5-0.1c0.1,0,2.8,0.9,4.3,1.4l0,0c0.4,0.2,0.8,0.6,1,1.1
	c0.2,0.5,0.2,1,0,1.5c-0.2,0.5-0.6,0.8-1,1c-0.5,0.2-1,0.2-1.5,0.1l-0.1,0l-3.8-1.3c-0.1,0-0.1,0-0.2-0.1l0,0c-0.4-0.2-0.8-0.5-1-1
	C21,39.1,21,38.6,21.1,38.1L21.1,38.1z M21.4,44.1c0.2-0.5,0.5-0.9,1-1.2c0.5-0.2,1-0.3,1.5-0.1l0.1,0l3.8,1.3c0.1,0,0.1,0,0.2,0.1
	l0,0c0.4,0.2,0.8,0.5,1,1c0.2,0.4,0.3,0.9,0.1,1.4l0,0c0,0,0,0.1-0.1,0.1c-0.1,0.4-0.4,0.7-0.7,1C28,47.9,27.6,48,27.2,48
	c-0.1,0-0.3,0-0.4,0h0c-0.1,0-3.2-1.1-4.4-1.5l0,0c-0.4-0.2-0.8-0.6-0.9-1C21.2,45,21.2,44.5,21.4,44.1L21.4,44.1z M25,53.4
	l-0.2-0.1l-0.1,0l-1.5-0.5c-0.3-0.1-0.5-0.2-0.7-0.4c-0.2-0.2-0.4-0.4-0.5-0.6c-0.1-0.2-0.2-0.5-0.2-0.8c0-0.3,0-0.5,0.1-0.8
	c0.1-0.3,0.2-0.5,0.4-0.7s0.4-0.4,0.6-0.5c0.2-0.1,0.5-0.2,0.8-0.2c0.3,0,0.5,0,0.8,0.1c0.5,0.2,1.4,0.4,1.5,0.5
	c1.2,0.4,1.6,1.6,1.3,2.5c0,0,0,0,0,0c-0.1,0.4-0.4,0.7-0.7,0.9c-0.3,0.2-0.7,0.4-1.1,0.4h0h-0.1h0C25.2,53.4,25.1,53.4,25,53.4
	L25,53.4z"/>
<path class="st2" d="M27.1,52L27.1,52C27.1,52,27.1,52,27.1,52z"/>
<path class="st2" d="M27.1,52C27.1,52,27.1,52,27.1,52L27.1,52C27.1,52,27.1,52,27.1,52z"/>
<path class="st2" d="M27.1,52.2V52C27.1,52.1,27,52.1,27.1,52.2L27.1,52.2z"/>
<path class="st2" d="M27.1,52L27.1,52L27.1,52l0.1-0.1L27.1,52L27.1,52C27.1,52,27.1,52,27.1,52C27.1,52,27.1,52,27.1,52L27.1,52z"
	/>
<path class="st1" d="M35.3,17.1c0-0.1,0-0.2-0.1-0.3c-0.1-0.1-0.2-0.2-0.3-0.2c-0.1,0-0.2-0.1-0.3,0c-0.1,0-0.2,0.1-0.3,0.2
	c-0.1,0.1-0.1,0.2-0.2,0.3c0,0.1,0,0.2,0,0.3c0,0.1,0.1,0.2,0.2,0.3c0.1,0.1,0.2,0.1,0.3,0.1c0.2,0,0.3-0.1,0.4-0.2
	C35.3,17.4,35.3,17.2,35.3,17.1L35.3,17.1z"/>
<path class="st1" d="M43.4,17.7c0.1,0,0.2,0,0.2,0c0.1,0,0.1-0.1,0.2-0.1c0.1-0.1,0.1-0.1,0.1-0.2c0-0.1,0-0.2,0-0.2
	c0-0.1,0-0.2,0-0.2c0-0.1-0.1-0.1-0.1-0.2c-0.1-0.1-0.1-0.1-0.2-0.1c-0.1,0-0.2,0-0.2,0h-5.8c-0.1,0-0.2,0-0.2,0s-0.1,0.1-0.2,0.1
	c-0.1,0.1-0.1,0.1-0.1,0.2c0,0.1,0,0.2,0,0.2c0,0.1,0,0.2,0,0.2c0,0.1,0.1,0.1,0.1,0.2c0.1,0.1,0.1,0.1,0.2,0.1c0.1,0,0.2,0,0.2,0
	H43.4z"/>
<path class="st1" d="M37.3,56.4c0,0.3,0.1,0.6,0.2,0.8s0.4,0.4,0.7,0.5c0.3,0.1,0.6,0.1,0.9,0.1c0.3-0.1,0.6-0.2,0.8-0.4
	c0.2-0.2,0.3-0.5,0.4-0.8c0.1-0.3,0-0.6-0.1-0.9s-0.3-0.5-0.5-0.7c-0.2-0.2-0.5-0.3-0.8-0.3c-0.4,0-0.8,0.2-1,0.4
	C37.5,55.6,37.3,56,37.3,56.4L37.3,56.4z"/>
<path class="st1" d="M48.9,52.7c0-0.2-0.1-0.4-0.2-0.6c-0.2-0.2-0.4-0.2-0.6-0.2H31c-0.2,0-0.4,0.1-0.6,0.2
	c-0.2,0.2-0.2,0.4-0.2,0.6c0,0.2,0.1,0.4,0.2,0.6c0.2,0.2,0.4,0.2,0.6,0.2h17.1c0.2,0,0.4-0.1,0.6-0.2
	C48.8,53.1,48.9,52.9,48.9,52.7z"/>
<path class="st1" d="M48.1,19.9H29.5c-0.1,0-0.2,0-0.3,0.1c-0.1,0-0.2,0.1-0.3,0.2c-0.1,0.1-0.1,0.2-0.2,0.3c0,0.1-0.1,0.2-0.1,0.3
	c0,0.1,0,0.2,0.1,0.3c0,0.1,0.1,0.2,0.2,0.3c0.1,0.1,0.2,0.1,0.3,0.2c0.1,0,0.2,0.1,0.3,0.1h18.6c0.1,0,0.2,0,0.3-0.1
	c0.1,0,0.2-0.1,0.3-0.2c0.1-0.1,0.1-0.2,0.2-0.3s0.1-0.2,0.1-0.3c0-0.1,0-0.2-0.1-0.3s-0.1-0.2-0.2-0.3c-0.1-0.1-0.2-0.1-0.3-0.2
	C48.3,19.9,48.2,19.9,48.1,19.9L48.1,19.9z"/>
</svg>
