<svg width="397" height="12" viewBox="0 0 397 12" fill="none" xmlns="http://www.w3.org/2000/svg">
<path d="M1.71428 12V0.00909135H7.57289C8.10318 -0.0277123 8.63519 0.0474817 9.13593 0.230011C9.63666 0.41254 10.0954 0.698497 10.4838 1.07016C10.8721 1.44182 11.1817 1.89127 11.3934 2.39057C11.6051 2.88987 11.7143 3.42838 11.7143 3.97271C11.7143 4.51705 11.6051 5.05558 11.3934 5.55488C11.1817 6.05419 10.8721 6.50361 10.4838 6.87527C10.0954 7.24693 9.63666 7.53291 9.13593 7.71544C8.63519 7.89797 8.10318 7.97317 7.57289 7.93636H4.73234V12H1.71428ZM7.13793 2.64545H4.69684V5.37272H7.13793C7.49107 5.37272 7.82973 5.22906 8.07944 4.97333C8.32914 4.7176 8.46943 4.37074 8.46943 4.00909C8.46943 3.64743 8.32914 3.30057 8.07944 3.04484C7.82973 2.78911 7.49107 2.64545 7.13793 2.64545Z" fill="white"/>
<path d="M26.9169 0.00856819C28.094 0.0482184 29.2335 0.433358 30.1931 1.116C31.1528 1.79864 31.8902 2.74858 32.3135 3.84736C32.7367 4.94614 32.8271 6.14516 32.5733 7.29493C32.3195 8.4447 31.7327 9.49435 30.8862 10.313C30.0397 11.1317 28.9709 11.6832 27.8129 11.8987C26.655 12.1142 25.4593 11.9842 24.3748 11.5249C23.2902 11.0657 22.3649 10.2974 21.7142 9.31602C21.0635 8.3346 20.7162 7.1834 20.7155 6.00597C20.6986 5.19649 20.849 4.39223 21.1574 3.64354C21.4657 2.89484 21.9253 2.21783 22.5074 1.65487C23.0895 1.09191 23.7816 0.655112 24.5403 0.371835C25.2991 0.0885568 26.1081 -0.0351123 26.9169 0.00856819ZM26.9169 2.64287C26.2459 2.60064 25.5776 2.76089 24.9988 3.10287C24.42 3.44485 23.9573 3.95278 23.6707 4.56079C23.3842 5.1688 23.2869 5.84886 23.3916 6.51279C23.4962 7.17672 23.798 7.7939 24.2578 8.28432C24.7175 8.77474 25.3141 9.11577 25.97 9.2632C26.626 9.41064 27.3111 9.35768 27.9366 9.11118C28.5621 8.86469 29.0991 8.43605 29.478 7.8808C29.8569 7.32556 30.0602 6.66933 30.0615 5.99721C30.0918 5.56713 30.0328 5.13542 29.8881 4.72924C29.7435 4.32305 29.5164 3.95118 29.221 3.63697C28.9257 3.32277 28.5686 3.07304 28.172 2.90347C27.7755 2.7339 27.3482 2.64817 26.9169 2.65166V2.64287Z" fill="white"/>
<path d="M51.0176 12L49.2052 4.48521L47.3929 12H44.1306L40.7143 0H44.1669L45.9792 8.00605L48.0272 0H50.3923L52.4312 8.00605L54.2436 0H57.7143L54.298 12H51.0176Z" fill="white"/>
<path d="M66.7144 11.9728V0H75.6958V2.63237H69.8908V4.62027H75.5843V7.24355H69.8908V9.39486H75.7143V12L66.7144 11.9728Z" fill="white"/>
<path d="M92.2476 11.9638L90.2832 7.91359H88.7365V11.9638H85.7143V0.0125463H91.581C92.1125 -0.0312998 92.6472 0.0400757 93.1497 0.221978C93.6523 0.403881 94.1114 0.692174 94.4968 1.06792C94.8822 1.44366 95.1852 1.89834 95.3859 2.40202C95.5865 2.9057 95.6803 3.44697 95.661 3.99023C95.7069 4.77055 95.504 5.54508 95.0827 6.19826C94.6614 6.85143 94.0442 7.34823 93.3232 7.61456L95.7143 12L92.2476 11.9638ZM91.1276 2.64018H88.7365V5.35843H91.1276C91.4813 5.35843 91.8204 5.21524 92.0704 4.96036C92.3205 4.70547 92.461 4.35977 92.461 3.9993C92.461 3.63884 92.3205 3.29314 92.0704 3.03825C91.8204 2.78337 91.4813 2.64018 91.1276 2.64018Z" fill="white"/>
<path d="M104.714 12V0H107.714V12H104.714Z" fill="white"/>
<path d="M126.798 12L121.775 4.72176V12H118.714V0H121.865L126.672 6.91433V0H129.714V12H126.798Z" fill="white"/>
<path d="M145.283 0.00548217C146.329 -0.0390126 147.368 0.188013 148.288 0.66204C149.208 1.13607 149.973 1.83907 150.502 2.69508L147.865 4.00921C147.594 3.59127 147.214 3.24611 146.762 3.00682C146.31 2.76752 145.801 2.6421 145.283 2.64251C144.378 2.6864 143.526 3.05767 142.902 3.67966C142.278 4.30165 141.93 5.12681 141.93 5.98476C141.93 6.84272 142.278 7.66791 142.902 8.28989C143.526 8.91188 144.378 9.28316 145.283 9.32704C146.113 9.34163 146.926 9.09857 147.596 8.63495V7.66248H144.821V5.1919H150.714V9.74757C150.038 10.4694 149.205 11.0444 148.273 11.433C147.34 11.8216 146.33 12.0148 145.311 11.9991C141.675 11.9991 138.714 9.695 138.714 6.0242C138.714 2.35339 141.647 0.00548217 145.283 0.00548217Z" fill="white"/>
<path d="M182.762 12V3.90296L179.861 12H178.559L175.676 3.90296V12H172.714V0H176.822L179.21 6.80514L181.615 0H185.714V12H182.762Z" fill="white"/>
<path d="M204.298 12L203.688 10.1804H198.695L198.085 12H194.714L199.269 0H203.159L207.714 12H204.298ZM201.182 2.70205L199.506 7.57845H202.877L201.182 2.70205Z" fill="white"/>
<path d="M216.714 12V0H219.714V12H216.714Z" fill="white"/>
<path d="M237.762 12L232.765 4.72176V12H229.714V0H232.855L237.646 6.91433V0H240.714V12H237.762Z" fill="white"/>
<path d="M253.803 12V2.72315H250.714V0H259.714V2.72315H256.659V12H253.803Z" fill="white"/>
<path d="M269.714 11.9728V0H277.714V2.63237H272.535V4.62027H277.607V7.24355H272.535V9.39486H277.714V12L269.714 11.9728Z" fill="white"/>
<path d="M295.762 12L290.765 4.72176V12H287.714V0H290.855L295.646 6.91433V0H298.714V12H295.762Z" fill="white"/>
<path d="M317.298 12L316.688 10.1804H311.695L311.085 12H307.714L312.269 0H316.159L320.714 12H317.298ZM314.21 2.70205L312.533 7.57845H315.904L314.21 2.70205Z" fill="white"/>
<path d="M337.736 12L332.729 4.72176V12H329.714V0H332.855L337.646 6.91433V0H340.714V12H337.736Z" fill="white"/>
<path d="M349.715 6.00484C349.699 5.20017 349.859 4.40093 350.183 3.65639C350.508 2.91184 350.992 2.23778 351.604 1.67574C352.217 1.11369 352.945 0.675577 353.744 0.388417C354.544 0.101256 355.397 -0.0288615 356.252 0.006064C357.388 -0.0446799 358.514 0.223958 359.487 0.777712C360.46 1.33147 361.235 2.14525 361.714 3.11525L358.978 4.33607C358.748 3.83594 358.367 3.41002 357.882 3.11048C357.398 2.81094 356.831 2.65083 356.252 2.64975C355.339 2.69375 354.478 3.06596 353.848 3.68952C353.218 4.31307 352.867 5.14032 352.867 6.00044C352.867 6.86056 353.218 7.68783 353.848 8.31139C354.478 8.93495 355.339 9.30716 356.252 9.35115C356.83 9.34971 357.396 9.19045 357.88 8.89268C358.364 8.59491 358.745 8.17142 358.978 7.6736L361.714 8.88566C361.231 9.85274 360.455 10.6639 359.483 11.2171C358.511 11.7703 357.387 12.0409 356.252 11.9948C355.398 12.0284 354.546 11.8977 353.748 11.6106C352.95 11.3235 352.223 10.8861 351.611 10.3253C350.999 9.76447 350.515 9.09197 350.189 8.34905C349.863 7.60613 349.702 6.80841 349.715 6.00484Z" fill="white"/>
<path d="M370.714 11.9728V0H379.714V2.63237H373.879V4.62027H379.584V7.24355H373.879V9.39486H379.714V12L370.714 11.9728Z" fill="white"/>
<path d="M387.14 0.575953H385.714V0H389.143V0.575953H387.717V5.14286H387.154L387.14 0.575953Z" fill="white"/>
<path d="M394.461 0.867965L392.678 5.14286H392.415L390.649 0.867965V5.14286H390V0H390.928L392.571 3.918L394.215 0H395.143V5.14286H394.494L394.461 0.867965Z" fill="white"/>
</svg>
