<svg width="136" height="32" viewBox="0 0 136 32" fill="none" xmlns="http://www.w3.org/2000/svg">
<path fill-rule="evenodd" clip-rule="evenodd" d="M28.8146 0C24.0476 0 20.5603 3.77654 20.5603 9.05073C20.5603 14.3249 24.0476 18.1049 28.8146 18.1049C33.5816 18.1049 37.0905 14.3249 37.0905 9.05073C37.0905 3.77654 33.6062 0 28.8146 0ZM28.8146 14.7991C25.8977 14.7991 24.0229 12.3053 24.0229 9.05073C24.0229 5.79615 25.8977 3.30575 28.8146 3.30575C31.7315 3.30575 33.6278 5.77227 33.6278 9.05073C33.6278 12.3292 31.7315 14.7991 28.8146 14.7991ZM4.62514 3.56855H0V0.290087H16.6536L12.6174 3.56855H8.0169V17.7911H4.62514V3.56855ZM63.7987 28.6102C63.6361 28.8473 63.4041 29.0145 63.1423 29.0832C63.4286 29.1512 63.6845 29.3273 63.8662 29.5813C64.0479 29.8352 64.1441 30.1512 64.1383 30.475C64.1383 31.3655 63.6018 32 62.6582 32H60.1915V26.3403H62.5904C63.5031 26.3403 64.0334 26.9612 64.0334 27.7834C64.0443 28.0808 63.9613 28.3731 63.7987 28.6102ZM62.4455 27.0874H60.9593V28.742H62.4455C62.5477 28.7493 62.6502 28.7333 62.7466 28.695C62.843 28.6567 62.9313 28.5969 63.0061 28.5194C63.0808 28.4419 63.1403 28.3482 63.1811 28.2442C63.2218 28.1402 63.2428 28.0281 63.2428 27.9147C63.2428 27.8014 63.2218 27.6892 63.1811 27.5852C63.1403 27.4812 63.0808 27.3876 63.0061 27.31C62.9313 27.2325 62.843 27.1727 62.7466 27.1345C62.6502 27.0962 62.5477 27.0802 62.4455 27.0874ZM60.9593 31.2529H62.4856C62.5968 31.2675 62.7096 31.255 62.8161 31.2163C62.9225 31.1775 63.02 31.1135 63.1017 31.0286C63.1833 30.9438 63.2473 30.8402 63.2889 30.7251C63.3306 30.61 63.3489 30.4863 63.3428 30.3625C63.3451 30.2406 63.324 30.1195 63.2808 30.0073C63.2376 29.8951 63.1733 29.7944 63.0923 29.7118C63.0112 29.6292 62.9152 29.5666 62.8106 29.5282C62.706 29.4899 62.5952 29.4765 62.4856 29.4891H60.9593V31.2529ZM68.6556 26.3403L70.1603 28.8716L71.6465 26.3403H72.5376L70.5426 29.6324V32H69.7748V29.6324L67.7737 26.3403H68.6556ZM96.6714 28.0802C96.6714 27.0363 96.0054 26.3403 95.0311 26.3403H92.8727V32H93.6404V29.82H94.5963L95.8297 32H96.7177L95.4072 29.7348C95.7692 29.69 96.1019 29.4936 96.337 29.1859C96.5722 28.8782 96.6918 28.4825 96.6714 28.0802ZM93.6435 29.0729V27.0874H94.9324C95.0502 27.0874 95.1669 27.1131 95.2758 27.163C95.3846 27.2129 95.4835 27.286 95.5669 27.3782C95.6502 27.4704 95.7163 27.5798 95.7614 27.7003C95.8065 27.8207 95.8297 27.9498 95.8297 28.0802C95.8297 28.2105 95.8065 28.3396 95.7614 28.4601C95.7163 28.5805 95.6502 28.69 95.5669 28.7822C95.4835 28.8743 95.3846 28.9475 95.2758 28.9974C95.1669 29.0472 95.0502 29.0729 94.9324 29.0729H93.6435ZM101.3 26.3403L102.804 28.8716L104.291 26.3403H105.182L103.187 29.6324V32H102.419V29.6324L100.418 26.3403H101.3ZM111.068 26.3403H109.243V32H111.068C112.662 32 113.72 30.8128 113.72 29.1753C113.72 27.5377 112.662 26.3403 111.068 26.3403ZM111.068 31.2529H110.01V27.0874H111.068C112.27 27.0874 112.918 28.0119 112.918 29.1753C112.932 29.4495 112.894 29.724 112.806 29.981C112.719 30.2381 112.583 30.4719 112.409 30.6676C112.235 30.8633 112.025 31.0165 111.794 31.1173C111.564 31.2181 111.316 31.2643 111.068 31.2529ZM121.533 32H118.098V26.3403H121.533V27.0874H118.866V28.742H121.481V29.4891H118.866V31.2529H121.533V32ZM129.735 28.0802C129.735 27.0363 129.069 26.3403 128.095 26.3403H125.936V32H126.704V29.82H127.663L128.896 32H129.787L128.477 29.7348C128.838 29.6884 129.169 29.4913 129.403 29.1838C129.637 28.8762 129.756 28.4814 129.735 28.0802ZM126.707 27.0874H127.996C128.114 27.0874 128.23 27.1131 128.339 27.163C128.448 27.2129 128.547 27.286 128.63 27.3782C128.714 27.4704 128.78 27.5798 128.825 27.7003C128.87 27.8207 128.893 27.9498 128.893 28.0802C128.893 28.2105 128.87 28.3396 128.825 28.4601C128.78 28.5805 128.714 28.69 128.63 28.7822C128.547 28.8743 128.448 28.9475 128.339 28.9974C128.23 29.0472 128.114 29.0729 127.996 29.0729H126.707V27.0874ZM53.9753 0.286698C57.2715 0.286698 59.2881 2.67476 59.2881 5.92934C59.2881 9.02699 57.5336 10.6782 55.8285 11.1251L59.3867 17.7912H55.5201L52.412 11.5174H49.9453V17.7912H46.5751V0.286698H53.9753ZM49.9453 8.3174H53.4789C54.8295 8.3174 55.8501 7.36899 55.8501 5.90204C55.8501 4.43509 54.8295 3.4901 53.4789 3.4901H49.9453V8.3174ZM104.917 10.6782C104.917 13.1208 103.705 14.7993 101.287 14.7993C98.8206 14.7993 97.6119 13.1208 97.6119 10.6782V0.286698H94.2047V10.8112C94.2047 15.1131 96.4587 18.105 101.297 18.105C106.088 18.105 108.339 15.1404 108.339 10.7839V0.286698H104.917V10.6782ZM121.943 14.5638H129.769V17.7911H118.576V0.290087H133.805L129.769 3.49008H121.943V7.29391H129.605V10.4973H121.943V14.5638ZM131.48 14.8025H132.1V16.7265H132.341V14.8025H132.963V14.5637H131.48V14.8025ZM134.419 16.2114L135.026 14.5637H135.378V16.7265H135.134V14.9253L134.468 16.7265H134.369L133.706 14.9253V16.7265H133.463V14.5637H133.811L134.419 16.2114Z" fill="white"/>
<path fill-rule="evenodd" clip-rule="evenodd" d="M76.4349 0C81.2235 0 84.7108 3.77654 84.7108 9.05073C84.7108 13.7757 81.908 17.2929 77.878 17.9752L85.8054 31.8669L70.4777 15.5155C70.427 15.4621 70.3806 15.4039 70.339 15.3415C68.9122 13.6317 68.1388 11.3774 68.1806 9.05073C68.1806 3.77654 71.6464 0 76.4349 0ZM79.287 3.48308L82.1608 8.99607L79.287 14.5057H73.5334L70.6596 8.99607L73.5334 3.48308H79.287Z" fill="#FF6A13"/>
</svg>
