<svg width="150" height="32" viewBox="0 0 150 32" fill="none" xmlns="http://www.w3.org/2000/svg">
<path fill-rule="evenodd" clip-rule="evenodd" d="M31.8881 0C26.6127 0 22.7534 3.77654 22.7534 9.05073C22.7534 14.3249 26.6127 18.1049 31.8881 18.1049C37.1636 18.1049 41.0468 14.3249 41.0468 9.05073C41.0468 3.77654 37.1909 0 31.8881 0ZM31.8881 14.7991C28.6601 14.7991 26.5854 12.3053 26.5854 9.05073C26.5854 5.79615 28.6601 3.30575 31.8881 3.30575C35.1162 3.30575 37.2148 5.77227 37.2148 9.05073C37.2148 12.3292 35.1162 14.7991 31.8881 14.7991ZM5.11848 3.56855H0V0.290087H18.43L13.9632 3.56855H8.87204V17.7911H5.11848V3.56855ZM70.6039 28.6102C70.424 28.8473 70.1672 29.0145 69.8775 29.0832C70.1943 29.1512 70.4775 29.3273 70.6786 29.5813C70.8797 29.8352 70.9861 30.1512 70.9797 30.475C70.9797 31.3655 70.386 32 69.3418 32H66.6119V26.3403H69.2667C70.2768 26.3403 70.8637 26.9612 70.8637 27.7834C70.8757 28.0808 70.7838 28.3731 70.6039 28.6102ZM69.1063 27.0874H67.4616V28.742H69.1063C69.2195 28.7493 69.3329 28.7333 69.4396 28.695C69.5463 28.6567 69.644 28.5969 69.7267 28.5194C69.8094 28.4419 69.8753 28.3482 69.9204 28.2442C69.9654 28.1402 69.9887 28.0281 69.9887 27.9147C69.9887 27.8014 69.9654 27.6892 69.9204 27.5852C69.8753 27.4812 69.8094 27.3876 69.7267 27.31C69.644 27.2325 69.5463 27.1727 69.4396 27.1345C69.3329 27.0962 69.2195 27.0802 69.1063 27.0874ZM67.4616 31.2529H69.1507C69.2738 31.2675 69.3987 31.255 69.5164 31.2163C69.6342 31.1775 69.7421 31.1135 69.8325 31.0286C69.9229 30.9438 69.9936 30.8402 70.0397 30.7251C70.0858 30.61 70.1062 30.4863 70.0993 30.3625C70.1019 30.2406 70.0785 30.1195 70.0307 30.0073C69.9829 29.8951 69.9118 29.7944 69.8221 29.7118C69.7324 29.6292 69.6261 29.5666 69.5104 29.5282C69.3946 29.4899 69.272 29.4765 69.1507 29.4891H67.4616V31.2529ZM75.9788 26.3403L77.644 28.8716L79.2888 26.3403H80.2749L78.0672 29.6324V32H77.2175V29.6324L75.0029 26.3403H75.9788ZM106.983 28.0802C106.983 27.0363 106.246 26.3403 105.168 26.3403H102.779V32H103.629V29.82H104.687L106.051 32H107.034L105.584 29.7348C105.985 29.69 106.353 29.4936 106.613 29.1859C106.873 28.8782 107.006 28.4825 106.983 28.0802ZM103.632 29.0729V27.0874H105.059C105.189 27.0874 105.318 27.1131 105.439 27.163C105.559 27.2129 105.668 27.286 105.761 27.3782C105.853 27.4704 105.926 27.5798 105.976 27.7003C106.026 27.8207 106.051 27.9498 106.051 28.0802C106.051 28.2105 106.026 28.3396 105.976 28.4601C105.926 28.5805 105.853 28.69 105.761 28.7822C105.668 28.8743 105.559 28.9475 105.439 28.9974C105.318 29.0472 105.189 29.0729 105.059 29.0729H103.632ZM112.105 26.3403L113.77 28.8716L115.415 26.3403H116.401L114.193 29.6324V32H113.344V29.6324L111.129 26.3403H112.105ZM122.915 26.3403H120.895V32H122.915C124.679 32 125.85 30.8128 125.85 29.1753C125.85 27.5377 124.679 26.3403 122.915 26.3403ZM122.915 31.2529H121.745V27.0874H122.915C124.246 27.0874 124.963 28.0119 124.963 29.1753C124.978 29.4495 124.936 29.724 124.839 29.981C124.742 30.2381 124.592 30.4719 124.399 30.6676C124.207 30.8633 123.975 31.0165 123.719 31.1173C123.464 31.2181 123.19 31.2643 122.915 31.2529ZM134.497 32H130.695V26.3403H134.497V27.0874H131.545V28.742H134.439V29.4891H131.545V31.2529H134.497V32ZM143.573 28.0802C143.573 27.0363 142.836 26.3403 141.758 26.3403H139.369V32H140.219V29.82H141.28L142.645 32H143.631L142.181 29.7348C142.581 29.6884 142.947 29.4913 143.206 29.1838C143.465 28.8762 143.596 28.4814 143.573 28.0802ZM140.223 27.0874H141.649C141.779 27.0874 141.908 27.1131 142.029 27.163C142.149 27.2129 142.259 27.286 142.351 27.3782C142.443 27.4704 142.516 27.5798 142.566 27.7003C142.616 27.8207 142.642 27.9498 142.642 28.0802C142.642 28.2105 142.616 28.3396 142.566 28.4601C142.516 28.5805 142.443 28.69 142.351 28.7822C142.259 28.8743 142.149 28.9475 142.029 28.9974C141.908 29.0472 141.779 29.0729 141.649 29.0729H140.223V27.0874ZM59.7327 0.286698C63.3805 0.286698 65.6121 2.67476 65.6121 5.92934C65.6121 9.02699 63.6705 10.6782 61.7835 11.1251L65.7213 17.7912H61.4423L58.0027 11.5174H55.2728V17.7912H51.5431V0.286698H59.7327ZM55.2728 8.3174H59.1833C60.6779 8.3174 61.8074 7.36899 61.8074 5.90204C61.8074 4.43509 60.6779 3.4901 59.1833 3.4901H55.2728V8.3174ZM116.108 10.6782C116.108 13.1208 114.767 14.7993 112.091 14.7993C109.361 14.7993 108.024 13.1208 108.024 10.6782V0.286698H104.253V10.8112C104.253 15.1131 106.748 18.105 112.102 18.105C117.404 18.105 119.895 15.1404 119.895 10.7839V0.286698H116.108V10.6782ZM134.95 14.5638H143.611V17.7911H131.224V0.290087H148.078L143.611 3.49008H134.95V7.29391H143.43V10.4973H134.95V14.5638ZM145.505 14.8025H146.191V16.7265H146.457V14.8025H147.146V14.5637H145.505V14.8025ZM148.757 16.2114L149.429 14.5637H149.818V16.7265H149.548V14.9253L148.811 16.7265H148.702L147.969 14.9253V16.7265H147.699V14.5637H148.085L148.757 16.2114Z" fill="#0033A0"/>
<path fill-rule="evenodd" clip-rule="evenodd" d="M84.588 0C89.8873 0 93.7466 3.77654 93.7466 9.05073C93.7466 13.7757 90.6448 17.2929 86.1849 17.9752L94.958 31.8669L77.9954 15.5155C77.9392 15.4621 77.8879 15.4039 77.8418 15.3415C76.2629 13.6317 75.4069 11.3774 75.4532 9.05073C75.4532 3.77654 79.2886 0 84.588 0ZM87.7443 3.48308L90.9246 8.99607L87.7443 14.5057H81.3769L78.1967 8.99607L81.3769 3.48308H87.7443Z" fill="#FF6A13"/>
</svg>
