<svg width="395" height="12" viewBox="0 0 395 12" fill="none" xmlns="http://www.w3.org/2000/svg">
<path d="M0.714355 12V0.00909135H6.57297C7.10326 -0.0277123 7.63527 0.0474817 8.136 0.230011C8.63674 0.41254 9.0955 0.698497 9.48383 1.07016C9.87216 1.44182 10.1818 1.89127 10.3935 2.39057C10.6051 2.88987 10.7144 3.42838 10.7144 3.97271C10.7144 4.51705 10.6051 5.05558 10.3935 5.55488C10.1818 6.05419 9.87216 6.50361 9.48383 6.87527C9.0955 7.24693 8.63674 7.53291 8.136 7.71544C7.63527 7.89797 7.10326 7.97317 6.57297 7.93636H3.73242V12H0.714355ZM6.13801 2.64545H3.69692V5.37272H6.13801C6.49114 5.37272 6.82981 5.22906 7.07951 4.97333C7.32922 4.7176 7.46951 4.37074 7.46951 4.00909C7.46951 3.64743 7.32922 3.30057 7.07951 3.04484C6.82981 2.78911 6.49114 2.64545 6.13801 2.64545Z" fill="white"/>
<path d="M25.917 0.00856819C27.0942 0.0482184 28.2336 0.433358 29.1933 1.116C30.1529 1.79864 30.8903 2.74858 31.3136 3.84736C31.7368 4.94614 31.8272 6.14516 31.5734 7.29493C31.3196 8.4447 30.7329 9.49435 29.8864 10.313C29.0399 11.1317 27.971 11.6832 26.8131 11.8987C25.6552 12.1142 24.4594 11.9842 23.3749 11.5249C22.2904 11.0657 21.3651 10.2974 20.7144 9.31602C20.0636 8.3346 19.7163 7.1834 19.7156 6.00597C19.6987 5.19649 19.8492 4.39223 20.1575 3.64354C20.4658 2.89484 20.9254 2.21783 21.5075 1.65487C22.0897 1.09191 22.7817 0.655112 23.5405 0.371835C24.2992 0.0885568 25.1083 -0.0351123 25.917 0.00856819ZM25.917 2.64287C25.246 2.60064 24.5778 2.76089 23.999 3.10287C23.4202 3.44485 22.9575 3.95278 22.6709 4.56079C22.3843 5.1688 22.287 5.84886 22.3917 6.51279C22.4964 7.17672 22.7981 7.7939 23.2579 8.28432C23.7177 8.77474 24.3142 9.11577 24.9702 9.2632C25.6261 9.41064 26.3113 9.35768 26.9368 9.11118C27.5623 8.86469 28.0993 8.43605 28.4781 7.8808C28.857 7.32556 29.0603 6.66933 29.0616 5.99721C29.0919 5.56713 29.0329 5.13542 28.8883 4.72924C28.7436 4.32305 28.5165 3.95118 28.2212 3.63697C27.9258 3.32277 27.5687 3.07304 27.1722 2.90347C26.7756 2.7339 26.3483 2.64817 25.917 2.65166V2.64287Z" fill="white"/>
<path d="M50.0177 12L48.2053 4.48521L46.3929 12H43.1307L39.7144 0H43.1669L44.9793 8.00605L47.0273 0H49.3924L51.4313 8.00605L53.2437 0H56.7144L53.2981 12H50.0177Z" fill="white"/>
<path d="M65.7144 11.9728V0H74.6958V2.63237H68.8908V4.62027H74.5843V7.24355H68.8908V9.39486H74.7143V12L65.7144 11.9728Z" fill="white"/>
<path d="M91.2477 11.9638L89.2832 7.91359H87.7366V11.9638H84.7144V0.0125463H90.581C91.1126 -0.0312998 91.6472 0.0400757 92.1498 0.221978C92.6524 0.403881 93.1115 0.692174 93.4969 1.06792C93.8823 1.44366 94.1853 1.89834 94.3859 2.40202C94.5866 2.9057 94.6803 3.44697 94.661 3.99023C94.7069 4.77055 94.5041 5.54508 94.0827 6.19826C93.6614 6.85143 93.0442 7.34823 92.3232 7.61456L94.7144 12L91.2477 11.9638ZM90.1277 2.64018H87.7366V5.35843H90.1277C90.4813 5.35843 90.8205 5.21524 91.0705 4.96036C91.3206 4.70547 91.461 4.35977 91.461 3.9993C91.461 3.63884 91.3206 3.29314 91.0705 3.03825C90.8205 2.78337 90.4813 2.64018 90.1277 2.64018Z" fill="white"/>
<path d="M103.714 12V0H106.714V12H103.714Z" fill="white"/>
<path d="M125.798 12L120.775 4.72176V12H117.714V0H120.865L125.672 6.91433V0H128.714V12H125.798Z" fill="white"/>
<path d="M144.283 0.00548217C145.329 -0.0390126 146.368 0.188013 147.288 0.66204C148.208 1.13607 148.973 1.83907 149.502 2.69508L146.865 4.00921C146.594 3.59127 146.214 3.24611 145.762 3.00682C145.31 2.76752 144.801 2.6421 144.283 2.64251C143.378 2.6864 142.526 3.05767 141.902 3.67966C141.278 4.30165 140.93 5.12681 140.93 5.98476C140.93 6.84272 141.278 7.66791 141.902 8.28989C142.526 8.91188 143.378 9.28316 144.283 9.32704C145.113 9.34163 145.926 9.09857 146.596 8.63495V7.66248H143.821V5.1919H149.714V9.74757C149.038 10.4694 148.205 11.0444 147.273 11.433C146.34 11.8216 145.33 12.0148 144.311 11.9991C140.675 11.9991 137.714 9.695 137.714 6.0242C137.714 2.35339 140.647 0.00548217 144.283 0.00548217Z" fill="white"/>
<path d="M181.762 12V3.90296L178.861 12H177.559L174.676 3.90296V12H171.714V0H175.822L178.21 6.80514L180.615 0H184.714V12H181.762Z" fill="white"/>
<path d="M203.298 12L202.688 10.1804H197.695L197.085 12H193.714L198.269 0H202.159L206.714 12H203.298ZM200.182 2.70205L198.506 7.57845H201.877L200.182 2.70205Z" fill="white"/>
<path d="M215.714 12V0H218.714V12H215.714Z" fill="white"/>
<path d="M236.762 12L231.765 4.72176V12H228.714V0H231.855L236.646 6.91433V0H239.714V12H236.762Z" fill="white"/>
<path d="M252.803 12V2.72315H249.714V0H258.714V2.72315H255.659V12H252.803Z" fill="white"/>
<path d="M268.714 11.9728V0H276.714V2.63237H271.535V4.62027H276.607V7.24355H271.535V9.39486H276.714V12L268.714 11.9728Z" fill="white"/>
<path d="M294.762 12L289.765 4.72176V12H286.714V0H289.855L294.646 6.91433V0H297.714V12H294.762Z" fill="white"/>
<path d="M316.298 12L315.688 10.1804H310.695L310.085 12H306.714L311.269 0H315.159L319.714 12H316.298ZM313.21 2.70205L311.534 7.57845H314.904L313.21 2.70205Z" fill="white"/>
<path d="M336.736 12L331.729 4.72176V12H328.714V0H331.855L336.646 6.91433V0H339.714V12H336.736Z" fill="white"/>
<path d="M348.715 6.00484C348.699 5.20017 348.859 4.40093 349.183 3.65639C349.508 2.91184 349.992 2.23778 350.604 1.67574C351.217 1.11369 351.945 0.675577 352.744 0.388417C353.544 0.101256 354.397 -0.0288615 355.252 0.006064C356.388 -0.0446799 357.514 0.223958 358.487 0.777712C359.46 1.33147 360.235 2.14525 360.714 3.11525L357.978 4.33607C357.748 3.83594 357.367 3.41002 356.882 3.11048C356.398 2.81094 355.831 2.65083 355.252 2.64975C354.339 2.69375 353.478 3.06596 352.848 3.68952C352.218 4.31307 351.867 5.14032 351.867 6.00044C351.867 6.86056 352.218 7.68783 352.848 8.31139C353.478 8.93495 354.339 9.30716 355.252 9.35115C355.83 9.34971 356.396 9.19045 356.88 8.89268C357.364 8.59491 357.745 8.17142 357.978 7.6736L360.714 8.88566C360.231 9.85274 359.455 10.6639 358.483 11.2171C357.511 11.7703 356.387 12.0409 355.252 11.9948C354.398 12.0284 353.546 11.8977 352.748 11.6106C351.95 11.3235 351.223 10.8861 350.611 10.3253C349.999 9.76447 349.515 9.09197 349.189 8.34905C348.863 7.60613 348.702 6.80841 348.715 6.00484Z" fill="white"/>
<path d="M369.714 11.9728V0H378.714V2.63237H372.879V4.62027H378.584V7.24355H372.879V9.39486H378.714V12L369.714 11.9728Z" fill="white"/>
<path d="M386.14 0.575953H384.714V0H388.143V0.575953H386.717V5.14286H386.154L386.14 0.575953Z" fill="white"/>
<path d="M393.461 0.867965L391.678 5.14286H391.415L389.649 0.867965V5.14286H389V0H389.928L391.571 3.918L393.215 0H394.143V5.14286H393.494L393.461 0.867965Z" fill="white"/>
</svg>
